<svg xmlns="http://www.w3.org/2000/svg" xmlns:xlink="http://www.w3.org/1999/xlink" xmlns:lucid="lucid" width="2395.55" height="927.6"><g transform="translate(2421 310.65409163509094)" lucid:page-tab-id="0_0"><path d="M-1695.4-281.65a8 8 0 0 1 8-8h599.52a8 8 0 0 1 8 8v52.3a8 8 0 0 1-8 8h-599.53a8 8 0 0 1-8-8z" stroke="#000" stroke-opacity="0" stroke-width="2" fill="#fff" fill-opacity="0"/><use xlink:href="#a" transform="matrix(1,0,0,1,-1691.4073906565973,-285.65409163509094) translate(211.34395061728395 35.09527777777778)"/><use xlink:href="#b" transform="matrix(1,0,0,1,-1691.4073906565973,-285.65409163509094) translate(254.9748148148148 35.09527777777778)"/><use xlink:href="#c" transform="matrix(1,0,0,1,-1691.4073906565973,-285.65409163509094) translate(305.96246913580245 35.09527777777778)"/><use xlink:href="#d" transform="matrix(1,0,0,1,-1691.4073906565973,-285.65409163509094) translate(321.9143209876543 35.09527777777778)"/><use xlink:href="#c" transform="matrix(1,0,0,1,-1691.4073906565973,-285.65409163509094) translate(372.7562962962963 35.09527777777778)"/><use xlink:href="#e" transform="matrix(1,0,0,1,-1691.4073906565973,-285.65409163509094) translate(388.7081481481481 35.09527777777778)"/><path d="M-1495.56-223.57h222.75M-1495.54-223.57h-1.02M-1272.84-223.57h1.03" stroke="#a9afb8" stroke-width="2" fill="none"/><path d="M-1695.4-213.34a8 8 0 0 1 8-8h600.2a8 8 0 0 1 8 8v15.28a8 8 0 0 1-8 8h-600.2a8 8 0 0 1-8-8z" stroke="#000" stroke-opacity="0" stroke-width="2" fill="#fff" fill-opacity="0"/><use xlink:href="#f" transform="matrix(1,0,0,1,-1691.4073906565973,-217.33986653978502) translate(186.60809670781896 16.417037037037037)"/><use xlink:href="#g" transform="matrix(1,0,0,1,-1691.4073906565973,-217.33986653978502) translate(255.27147119341566 16.417037037037037)"/><use xlink:href="#h" transform="matrix(1,0,0,1,-1691.4073906565973,-217.33986653978502) translate(290.92033950617287 16.417037037037037)"/><use xlink:href="#i" transform="matrix(1,0,0,1,-1691.4073906565973,-217.33986653978502) translate(303.36982510288067 16.417037037037037)"/><use xlink:href="#j" transform="matrix(1,0,0,1,-1691.4073906565973,-217.33986653978502) translate(378.0242489711934 16.417037037037037)"/><use xlink:href="#k" transform="matrix(1,0,0,1,-1691.4073906565973,-217.33986653978502) translate(395.02013374485597 16.417037037037037)"/><path d="M-760 193.08h256.55v156H-760z" stroke="#333" stroke-width="2" fill="#fff"/><path d="M-760 252.28h256.55M-760 311.48h256.55" stroke="#333" stroke-width="2" fill="none"/><use xlink:href="#l" transform="matrix(1,0,0,1,-752,201.0774472716239) translate(8.225000000000023 14.799999999999999)"/><use xlink:href="#m" transform="matrix(1,0,0,1,-752,201.0774472716239) translate(96.525 36.4)"/><use xlink:href="#n" transform="matrix(1,0,0,1,-748,260.2774472716239) translate(0 14.799999999999999)"/><use xlink:href="#o" transform="matrix(1,0,0,1,-748,260.2774472716239) translate(10.95 14.799999999999999)"/><use xlink:href="#p" transform="matrix(1,0,0,1,-748,260.2774472716239) translate(154.6 14.799999999999999)"/><use xlink:href="#n" transform="matrix(1,0,0,1,-748,260.2774472716239) translate(0 36.4)"/><use xlink:href="#q" transform="matrix(1,0,0,1,-748,260.2774472716239) translate(10.95 36.4)"/><use xlink:href="#r" transform="matrix(1,0,0,1,-748,260.2774472716239) translate(94.9 36.4)"/><use xlink:href="#s" transform="matrix(1,0,0,1,-748,319.4774472716239) translate(0 14.6)"/><use xlink:href="#t" transform="matrix(1,0,0,1,-748,319.4774472716239) translate(15.5 14.6)"/><use xlink:href="#r" transform="matrix(1,0,0,1,-748,319.4774472716239) translate(139.3 14.6)"/><path d="M-263 174.95h216.55v199H-263z" stroke="#333" stroke-width="2" fill="#fff"/><path d="M-263 234.15h216.55M-263 293.35h216.55" stroke="#333" stroke-width="2" fill="none"/><use xlink:href="#u" transform="matrix(1,0,0,1,-254.9954993751785,182.9501432676534) translate(9.700000000000017 14.799999999999999)"/><use xlink:href="#m" transform="matrix(1,0,0,1,-254.9954993751785,182.9501432676534) translate(76.525 36.4)"/><use xlink:href="#n" transform="matrix(1,0,0,1,-250.9954993751785,242.1501432676534) translate(0 14.799999999999999)"/><use xlink:href="#o" transform="matrix(1,0,0,1,-250.9954993751785,242.1501432676534) translate(10.95 14.799999999999999)"/><use xlink:href="#p" transform="matrix(1,0,0,1,-250.9954993751785,242.1501432676534) translate(154.6 14.799999999999999)"/><use xlink:href="#n" transform="matrix(1,0,0,1,-250.9954993751785,242.1501432676534) translate(0 36.4)"/><use xlink:href="#q" transform="matrix(1,0,0,1,-250.9954993751785,242.1501432676534) translate(10.95 36.4)"/><use xlink:href="#v" transform="matrix(1,0,0,1,-250.9954993751785,242.1501432676534) translate(94.9 36.4)"/><use xlink:href="#s" transform="matrix(1,0,0,1,-250.9954993751785,301.3501432676534) translate(0 14.500000000000002)"/><use xlink:href="#w" transform="matrix(1,0,0,1,-250.9954993751785,301.3501432676534) translate(15.5 14.500000000000002)"/><use xlink:href="#x" transform="matrix(1,0,0,1,-250.9954993751785,301.3501432676534) translate(0 36.1)"/><use xlink:href="#s" transform="matrix(1,0,0,1,-250.9954993751785,301.3501432676534) translate(0 57.7)"/><use xlink:href="#y" transform="matrix(1,0,0,1,-250.9954993751785,301.3501432676534) translate(15.5 57.7)"/><use xlink:href="#r" transform="matrix(1,0,0,1,-250.9954993751785,301.3501432676534) translate(99.30000000000001 57.7)"/><path d="M-264.5 273.95v1h-84.23v-1zm-221.57-2.37v-1h68.35v1z" stroke="#3a414a" stroke-width=".05" fill="#3a414a"/><path d="M-264 274.95h-.5v-1h.5z" fill="#3a414a"/><path d="M-263.97 274.98h-.56v-1.06h.56zm-.5-1v.94h.45V274z" stroke="#3a414a" stroke-width=".05" fill="#3a414a"/><path d="M-486.57 275.7l-14.27-4.62 14.27-4.64z" fill="#fff"/><path d="M-486.07 276.4l-16.38-5.32 16.38-5.33zm-13.15-5.32l12.15 3.94v-7.9z" stroke="#3a414a" stroke-width=".05" fill="#3a414a"/><use xlink:href="#z" transform="matrix(1,0,0,1,-417.71925184808305,262.09712860297196) translate(0 14.222222222222223)"/><path d="M-520-129h401.53V5H-520z" stroke="#333" stroke-width="2" fill="#fff"/><path d="M-520-91.4h401.53M-520-32.2h401.53" stroke="#333" stroke-width="2" fill="none"/><use xlink:href="#A" transform="matrix(1,0,0,1,-512,-121) translate(121.125 14.6)"/><use xlink:href="#m" transform="matrix(1,0,0,1,-512,-121) translate(216.925 14.6)"/><use xlink:href="#s" transform="matrix(1,0,0,1,-508,-83.4) translate(0 14.799999999999999)"/><use xlink:href="#B" transform="matrix(1,0,0,1,-508,-83.4) translate(15.5 14.799999999999999)"/><use xlink:href="#C" transform="matrix(1,0,0,1,-508,-83.4) translate(53.4 14.799999999999999)"/><use xlink:href="#s" transform="matrix(1,0,0,1,-508,-83.4) translate(0 36.4)"/><use xlink:href="#D" transform="matrix(1,0,0,1,-508,-83.4) translate(15.5 36.4)"/><use xlink:href="#r" transform="matrix(1,0,0,1,-508,-83.4) translate(78.4 36.4)"/><use xlink:href="#s" transform="matrix(1,0,0,1,-508,-24.200000000000003) translate(0 14.6)"/><use xlink:href="#E" transform="matrix(1,0,0,1,-508,-24.200000000000003) translate(15.5 14.6)"/><use xlink:href="#F" transform="matrix(1,0,0,1,-508,-24.200000000000003) translate(185.14999999999998 14.6)"/><use xlink:href="#G" transform="matrix(1,0,0,1,-508,-24.200000000000003) translate(271.9 14.6)"/><path d="M-2400 33.95h401.46v156H-2400z" stroke="#333" stroke-width="2" fill="#fff"/><path d="M-2400 93.15h401.46m-401.46 37.6h401.46" stroke="#333" stroke-width="2" fill="none"/><use xlink:href="#H" transform="matrix(1,0,0,1,-2392,41.95014326765343) translate(134.575 14.799999999999999)"/><use xlink:href="#I" transform="matrix(1,0,0,1,-2392,41.95014326765343) translate(81.225 36.4)"/><use xlink:href="#J" transform="matrix(1,0,0,1,-2392,41.95014326765343) translate(256.825 36.4)"/><use xlink:href="#s" transform="matrix(1,0,0,1,-2388,138.75014326765344) translate(0 14.799999999999999)"/><use xlink:href="#K" transform="matrix(1,0,0,1,-2388,138.75014326765344) translate(15.5 14.799999999999999)"/><use xlink:href="#L" transform="matrix(1,0,0,1,-2388,138.75014326765344) translate(158.15 14.799999999999999)"/><use xlink:href="#M" transform="matrix(1,0,0,1,-2388,138.75014326765344) translate(263 14.799999999999999)"/><use xlink:href="#N" transform="matrix(1,0,0,1,-2388,138.75014326765344) translate(0 36.4)"/><use xlink:href="#O" transform="matrix(1,0,0,1,-2388,138.75014326765344) translate(15.5 36.4)"/><use xlink:href="#L" transform="matrix(1,0,0,1,-2388,138.75014326765344) translate(195.2 36.4)"/><use xlink:href="#P" transform="matrix(1,0,0,1,-2388,138.75014326765344) translate(300.05 36.4)"/><path d="M-981.46-100h300.08v200h-300.08z" stroke="#333" stroke-width="2" fill="#fff"/><path d="M-981.46-62.4h300.08m-300.08 81.2h300.08" stroke="#333" stroke-width="2" fill="none"/><g><use xlink:href="#Q" transform="matrix(1,0,0,1,-973.4573779517707,-92) translate(54.67499999999998 14.6)"/><use xlink:href="#m" transform="matrix(1,0,0,1,-973.4573779517707,-92) translate(182.375 14.6)"/></g><g><use xlink:href="#n" transform="matrix(1,0,0,1,-969.4573779517707,-54.4) translate(0 25.799999999999997)"/><use xlink:href="#R" transform="matrix(1,0,0,1,-969.4573779517707,-54.4) translate(10.95 25.799999999999997)"/><use xlink:href="#S" transform="matrix(1,0,0,1,-969.4573779517707,-54.4) translate(109.85000000000001 25.799999999999997)"/><use xlink:href="#n" transform="matrix(1,0,0,1,-969.4573779517707,-54.4) translate(0 47.4)"/><use xlink:href="#T" transform="matrix(1,0,0,1,-969.4573779517707,-54.4) translate(10.95 47.4)"/><use xlink:href="#r" transform="matrix(1,0,0,1,-969.4573779517707,-54.4) translate(142.75 47.4)"/></g><g><use xlink:href="#s" transform="matrix(1,0,0,1,-969.4573779517707,26.800000000000004) translate(0 25.799999999999997)"/><use xlink:href="#U" transform="matrix(1,0,0,1,-969.4573779517707,26.800000000000004) translate(15.5 25.799999999999997)"/><use xlink:href="#V" transform="matrix(1,0,0,1,-969.4573779517707,26.800000000000004) translate(155.25 25.799999999999997)"/><use xlink:href="#N" transform="matrix(1,0,0,1,-969.4573779517707,26.800000000000004) translate(0 47.4)"/><use xlink:href="#W" transform="matrix(1,0,0,1,-969.4573779517707,26.800000000000004) translate(15.5 47.4)"/><use xlink:href="#r" transform="matrix(1,0,0,1,-969.4573779517707,26.800000000000004) translate(188.14999999999998 47.4)"/></g><path d="M-1900 200h440v280h-440z" stroke="#333" stroke-width="2" fill="#fff"/><path d="M-1900 237.6h440m-440 121.2h440" stroke="#333" stroke-width="2" fill="none"/><g><use xlink:href="#X" transform="matrix(1,0,0,1,-1892,208) translate(71.32500000000002 14.6)"/><use xlink:href="#m" transform="matrix(1,0,0,1,-1892,208) translate(304.72499999999997 14.6)"/></g><g><use xlink:href="#n" transform="matrix(1,0,0,1,-1888,245.6) translate(0 45.8)"/><use xlink:href="#Y" transform="matrix(1,0,0,1,-1888,245.6) translate(10.95 45.8)"/><use xlink:href="#Z" transform="matrix(1,0,0,1,-1888,245.6) translate(188.7 45.8)"/><use xlink:href="#n" transform="matrix(1,0,0,1,-1888,245.6) translate(0 67.4)"/><use xlink:href="#T" transform="matrix(1,0,0,1,-1888,245.6) translate(10.95 67.4)"/><use xlink:href="#r" transform="matrix(1,0,0,1,-1888,245.6) translate(142.75 67.4)"/></g><g><use xlink:href="#s" transform="matrix(1,0,0,1,-1888,366.8) translate(0 45.8)"/><use xlink:href="#K" transform="matrix(1,0,0,1,-1888,366.8) translate(15.5 45.8)"/><use xlink:href="#L" transform="matrix(1,0,0,1,-1888,366.8) translate(158.15 45.8)"/><use xlink:href="#M" transform="matrix(1,0,0,1,-1888,366.8) translate(263 45.8)"/><use xlink:href="#N" transform="matrix(1,0,0,1,-1888,366.8) translate(0 67.4)"/><use xlink:href="#aa" transform="matrix(1,0,0,1,-1888,366.8) translate(15.5 67.4)"/><use xlink:href="#L" transform="matrix(1,0,0,1,-1888,366.8) translate(217.09999999999997 67.4)"/><use xlink:href="#P" transform="matrix(1,0,0,1,-1888,366.8) translate(321.95 67.4)"/></g><path d="M-1660-140h440V16h-440z" stroke="#333" stroke-width="2" fill="#fff"/><path d="M-1660-80.8h440m-440 37.6h440" stroke="#333" stroke-width="2" fill="none"/><g><use xlink:href="#H" transform="matrix(1,0,0,1,-1652,-132) translate(153.575 14.799999999999999)"/><use xlink:href="#ab" transform="matrix(1,0,0,1,-1652,-132) translate(89.75 36.4)"/><use xlink:href="#J" transform="matrix(1,0,0,1,-1652,-132) translate(286.29999999999995 36.4)"/></g><g><use xlink:href="#s" transform="matrix(1,0,0,1,-1648,-35.199999999999996) translate(0 14.799999999999999)"/><use xlink:href="#K" transform="matrix(1,0,0,1,-1648,-35.199999999999996) translate(15.5 14.799999999999999)"/><use xlink:href="#L" transform="matrix(1,0,0,1,-1648,-35.199999999999996) translate(158.15 14.799999999999999)"/><use xlink:href="#M" transform="matrix(1,0,0,1,-1648,-35.199999999999996) translate(263 14.799999999999999)"/><use xlink:href="#N" transform="matrix(1,0,0,1,-1648,-35.199999999999996) translate(0 36.4)"/><use xlink:href="#aa" transform="matrix(1,0,0,1,-1648,-35.199999999999996) translate(15.5 36.4)"/><use xlink:href="#L" transform="matrix(1,0,0,1,-1648,-35.199999999999996) translate(217.09999999999997 36.4)"/><use xlink:href="#P" transform="matrix(1,0,0,1,-1648,-35.199999999999996) translate(321.95 36.4)"/></g><path d="M-2378.54 373.95h380v222h-380z" stroke="#333" stroke-width="2" fill="#fff"/><path d="M-2378.54 411.55h380m-380 59.6h380" stroke="#333" stroke-width="2" fill="none"/><g><use xlink:href="#ac" transform="matrix(1,0,0,1,-2370.5426220482295,381.9501432676534) translate(39.275000000000006 14.6)"/><use xlink:href="#m" transform="matrix(1,0,0,1,-2370.5426220482295,381.9501432676534) translate(276.775 14.6)"/></g><g><use xlink:href="#n" transform="matrix(1,0,0,1,-2366.5426220482295,419.5501432676534) translate(0 25.6)"/><use xlink:href="#ad" transform="matrix(1,0,0,1,-2366.5426220482295,419.5501432676534) translate(10.95 25.6)"/><use xlink:href="#ae" transform="matrix(1,0,0,1,-2366.5426220482295,419.5501432676534) translate(132.8 25.6)"/></g><g><use xlink:href="#s" transform="matrix(1,0,0,1,-2366.5426220482295,479.15014326765345) translate(0 25.69999999999999)"/><use xlink:href="#K" transform="matrix(1,0,0,1,-2366.5426220482295,479.15014326765345) translate(15.5 25.69999999999999)"/><use xlink:href="#L" transform="matrix(1,0,0,1,-2366.5426220482295,479.15014326765345) translate(158.15 25.69999999999999)"/><use xlink:href="#M" transform="matrix(1,0,0,1,-2366.5426220482295,479.15014326765345) translate(263 25.69999999999999)"/><use xlink:href="#N" transform="matrix(1,0,0,1,-2366.5426220482295,479.15014326765345) translate(0 47.29999999999999)"/><use xlink:href="#O" transform="matrix(1,0,0,1,-2366.5426220482295,479.15014326765345) translate(15.5 47.29999999999999)"/><use xlink:href="#L" transform="matrix(1,0,0,1,-2366.5426220482295,479.15014326765345) translate(195.2 47.29999999999999)"/><use xlink:href="#af" transform="matrix(1,0,0,1,-2366.5426220482295,479.15014326765345) translate(300.05 47.29999999999999)"/><use xlink:href="#s" transform="matrix(1,0,0,1,-2366.5426220482295,479.15014326765345) translate(0 68.89999999999999)"/><use xlink:href="#ag" transform="matrix(1,0,0,1,-2366.5426220482295,479.15014326765345) translate(15.5 68.89999999999999)"/><use xlink:href="#ah" transform="matrix(1,0,0,1,-2366.5426220482295,479.15014326765345) translate(188.2 68.89999999999999)"/><use xlink:href="#ai" transform="matrix(1,0,0,1,-2366.5426220482295,479.15014326765345) translate(0 90.5)"/></g><path d="M-1361.46 200h380v222h-380z" stroke="#333" stroke-width="2" fill="#fff"/><path d="M-1361.46 237.6h380m-380 59.6h380" stroke="#333" stroke-width="2" fill="none"/><g><use xlink:href="#aj" transform="matrix(1,0,0,1,-1353.4573779517707,208) translate(41.275000000000006 14.6)"/><use xlink:href="#m" transform="matrix(1,0,0,1,-1353.4573779517707,208) translate(274.775 14.6)"/></g><g><use xlink:href="#n" transform="matrix(1,0,0,1,-1349.4573779517707,245.6) translate(0 25.6)"/><use xlink:href="#ad" transform="matrix(1,0,0,1,-1349.4573779517707,245.6) translate(10.95 25.6)"/><use xlink:href="#ae" transform="matrix(1,0,0,1,-1349.4573779517707,245.6) translate(132.8 25.6)"/></g><g><use xlink:href="#s" transform="matrix(1,0,0,1,-1349.4573779517707,305.2) translate(0 25.69999999999999)"/><use xlink:href="#K" transform="matrix(1,0,0,1,-1349.4573779517707,305.2) translate(15.5 25.69999999999999)"/><use xlink:href="#L" transform="matrix(1,0,0,1,-1349.4573779517707,305.2) translate(158.15 25.69999999999999)"/><use xlink:href="#M" transform="matrix(1,0,0,1,-1349.4573779517707,305.2) translate(263 25.69999999999999)"/><use xlink:href="#N" transform="matrix(1,0,0,1,-1349.4573779517707,305.2) translate(0 47.29999999999999)"/><use xlink:href="#aa" transform="matrix(1,0,0,1,-1349.4573779517707,305.2) translate(15.5 47.29999999999999)"/><use xlink:href="#L" transform="matrix(1,0,0,1,-1349.4573779517707,305.2) translate(217.09999999999997 47.29999999999999)"/><use xlink:href="#af" transform="matrix(1,0,0,1,-1349.4573779517707,305.2) translate(321.95 47.29999999999999)"/><use xlink:href="#s" transform="matrix(1,0,0,1,-1349.4573779517707,305.2) translate(0 68.89999999999999)"/><use xlink:href="#ag" transform="matrix(1,0,0,1,-1349.4573779517707,305.2) translate(15.5 68.89999999999999)"/><use xlink:href="#ah" transform="matrix(1,0,0,1,-1349.4573779517707,305.2) translate(188.2 68.89999999999999)"/><use xlink:href="#ai" transform="matrix(1,0,0,1,-1349.4573779517707,305.2) translate(0 90.5)"/></g><path d="M-2188.54 372.45v-5.15m0-5.15v-10.3m0-5.14v-10.28m0-5.15v-10.3m0-5.14v-10.3m0-5.15v-10.3m0-5.14v-10.3m0-5.14v-10.3m0-5.14v-10.3m0-5.15v-10.28m0-5.15v-10.3m0-5.14v-5.15" stroke="#3a414a" fill="none"/><path d="M-2188.04 372.95h-1v-.5h1z" stroke="#3a414a" stroke-width=".05" fill="#3a414a"/><path d="M-2188.54 191.93l7.63 12.9h-15.28z" stroke="#3a414a" fill="#fff"/><path d="M-1680 198.5v-4.7m0-4.7v-9.38m0-4.7v-9.38m0-4.7v-9.38m0-4.7v-9.4m0-4.68v-9.4m0-4.7V114l.07-.94.22-.9.35-.88.5-.8.6-.72.72-.6.8-.5.88-.37.9-.23.95-.07h5.07m5.06 0h10.14m5.06 0h10.14m5.06 0h10.14m5.06 0h10.14m5.06 0h10.14m5.06 0h10.14m5.06 0h10.14m5.06 0h10.14m5.06 0h10.14m5.06 0h10.14m5.06 0h10.14m5.06 0h10.14m5.06 0h10.14m5.06 0h10.14m5.06 0h5.07l.94-.07.9-.22.88-.35.8-.5.72-.6.6-.72.5-.8.37-.88.23-.9.07-.95v-4.9m0-4.88v-9.8m0-4.88v-9.78m0-4.9V53.1m0-4.9v-9.8m0-4.88v-4.9" stroke="#3a414a" fill="none"/><path d="M-1679.5 199h-1v-.5h1z" stroke="#3a414a" stroke-width=".05" fill="#3a414a"/><path d="M-1440 17.98l7.64 12.9h-15.28z" stroke="#3a414a" fill="#fff"/><path d="M-1171.46 198.5v-4.7m0-4.7v-9.38m0-4.7v-9.38m0-4.7v-9.38m0-4.7v-9.4m0-4.68v-9.4m0-4.7V114l-.07-.94-.22-.9-.36-.88-.5-.8-.62-.72-.7-.6-.8-.5-.88-.37-.92-.23-.94-.07h-5.03m-5.02 0h-10.06m-5.03 0h-10.07m-5.03 0h-10.06m-5.03 0h-10.05m-5.03 0h-10.06m-5.03 0h-10.06m-5.03 0h-10.06m-5.03 0h-10.06m-5.04 0h-10.06m-5.04 0h-10.06m-5.02 0h-10.07m-5.02 0h-10.06m-5.03 0h-10.07m-5.03 0h-10.06m-5.03 0h-10.05m-5.03 0h-10.06m-5.03 0h-5.03l-.94-.07-.9-.22-.88-.35-.8-.5-.72-.6-.6-.72-.5-.8-.37-.88-.23-.9-.07-.95v-4.9m0-4.88v-9.8m0-4.88v-9.78m0-4.9V53.1m0-4.9v-9.8m0-4.88v-4.9" stroke="#3a414a" fill="none"/><path d="M-1170.96 199h-1v-.5h1z" stroke="#3a414a" stroke-width=".05" fill="#3a414a"/><path d="M-1440 17.98l7.64 12.9h-15.28z" stroke="#3a414a" fill="#fff"/><path d="M-1901.5 340h-41.77a6 6 0 0 0-6 6v181.72a6 6 0 0 1-6 6h-25.9" stroke="#3a414a" fill="none"/><path d="M-1901 340.5h-.5v-1h.5z" stroke="#3a414a" stroke-width=".05" fill="#3a414a"/><path d="M-1995.92 533.72l14.26-4.63v9.26z" stroke="#3a414a" fill="#3a414a"/><path d="M-521.5-62h-73.2a6 6 0 0 0-6 6v50a6 6 0 0 1-6 6H-664" stroke="#3a414a" fill="none"/><path d="M-521-61.5h-.5v-1h.5z" stroke="#3a414a" stroke-width=".05" fill="#3a414a"/><path d="M-678.77 0l14.27-4.63v9.27z" stroke="#3a414a" fill="#3a414a"/><path d="M-979.96 311h142.54a6 6 0 0 0 6-6V117.38" stroke="#3a414a" fill="none"/><path d="M-979.95 311.5h-.5v-1h.5z" stroke="#3a414a" stroke-width=".05" fill="#3a414a"/><path d="M-831.42 102.62l4.63 14.26h-9.26z" stroke="#3a414a" fill="#3a414a"/><defs><path fill="#a9afb8" d="M67-125c0 53 21 87 73 88 37 1 54-22 65-47l45 17C233-25 199 4 140 4 58 4 20-42 15-125 8-235 124-281 211-232c18 10 29 29 36 50l-46 12c-8-25-30-41-62-41-52 0-71 34-72 86" id="ak"/><path fill="#a9afb8" d="M169-182c-1-43-94-46-97-3 18 66 151 10 154 114 3 95-165 93-204 36-6-8-10-19-12-30l50-8c3 46 112 56 116 5-17-69-150-10-154-114-4-87 153-88 188-35 5 8 8 18 10 28" id="al"/><g id="a"><use transform="matrix(0.0728395061728395,0,0,0.0728395061728395,0,0)" xlink:href="#ak"/><use transform="matrix(0.0728395061728395,0,0,0.0728395061728395,18.86543209876543,0)" xlink:href="#al"/></g><path fill="#a9afb8" d="M115-159c48 0 72 30 72 78 0 54-30 85-83 85-64 0-91-50-91-122 0-98 58-163 141-120 15 8 21 24 27 44l-47 6c-5-31-48-31-61-4-7 14-11 33-11 60 9-17 28-27 53-27zM102-35c24 0 36-20 36-45s-11-43-37-43c-23 0-36 14-36 38 0 27 11 50 37 50" id="am"/><path fill="#a9afb8" d="M139-81c0-46-55-55-73-27H18l9-140h149v37H72l-4 63c44-38 133-4 122 66C201 21 21 35 11-62l49-4c5 18 15 30 39 30 26 0 40-18 40-45" id="an"/><g id="b"><use transform="matrix(0.0728395061728395,0,0,0.0728395061728395,0,0)" xlink:href="#am"/><use transform="matrix(0.0728395061728395,0,0,0.0728395061728395,14.5679012345679,0)" xlink:href="#am"/><use transform="matrix(0.0728395061728395,0,0,0.0728395061728395,29.1358024691358,0)" xlink:href="#an"/></g><path fill="#a9afb8" d="M14-72v-43h91v43H14" id="ao"/><use transform="matrix(0.0728395061728395,0,0,0.0728395061728395,0,0)" xlink:href="#ao" id="c"/><path fill="#a9afb8" d="M186 0v-106H76V0H24v-248h52v99h110v-99h50V0h-50" id="ap"/><path fill="#a9afb8" d="M275 0h-61l-44-196L126 0H64L0-248h53L97-49l45-199h58l43 199 44-199h52" id="aq"/><g id="d"><use transform="matrix(0.0728395061728395,0,0,0.0728395061728395,0,0)" xlink:href="#ap"/><use transform="matrix(0.0728395061728395,0,0,0.0728395061728395,18.86543209876543,0)" xlink:href="#aq"/></g><path fill="#a9afb8" d="M165-50V0h-47v-50H5v-38l105-160h55v161h33v37h-33zm-47-37l2-116L46-87h72" id="ar"/><use transform="matrix(0.0728395061728395,0,0,0.0728395061728395,0,0)" xlink:href="#ar" id="e"/><path fill="#a9afb8" d="M30-248c118-7 216 8 213 122C240-48 200 0 122 0H30v-248zM63-27c89 8 146-16 146-99s-60-101-146-95v194" id="as"/><path fill="#a9afb8" d="M24-231v-30h32v30H24zM24 0v-190h32V0H24" id="at"/><path fill="#a9afb8" d="M117-194c89-4 53 116 60 194h-32v-121c0-31-8-49-39-48C34-167 62-67 57 0H25l-1-190h30c1 10-1 24 2 32 11-22 29-35 61-36" id="au"/><path fill="#a9afb8" d="M177-190C167-65 218 103 67 71c-23-6-38-20-44-43l32-5c15 47 100 32 89-28v-30C133-14 115 1 83 1 29 1 15-40 15-95c0-56 16-97 71-98 29-1 48 16 59 35 1-10 0-23 2-32h30zM94-22c36 0 50-32 50-73 0-42-14-75-50-75-39 0-46 34-46 75s6 73 46 73" id="av"/><path fill="#a9afb8" d="M16-82v-28h88v28H16" id="aw"/><path fill="#a9afb8" d="M190 0L58-211 59 0H30v-248h39L202-35l-2-213h31V0h-41" id="ax"/><path fill="#a9afb8" d="M141-36C126-15 110 5 73 4 37 3 15-17 15-53c-1-64 63-63 125-63 3-35-9-54-41-54-24 1-41 7-42 31l-33-3c5-37 33-52 76-52 45 0 72 20 72 64v82c-1 20 7 32 28 27v20c-31 9-61-2-59-35zM48-53c0 20 12 33 32 33 41-3 63-29 60-74-43 2-92-5-92 41" id="ay"/><g id="f"><use transform="matrix(0.04248971193415638,0,0,0.04248971193415638,0,0)" xlink:href="#as"/><use transform="matrix(0.04248971193415638,0,0,0.04248971193415638,11.004835390946502,0)" xlink:href="#at"/><use transform="matrix(0.04248971193415638,0,0,0.04248971193415638,14.361522633744855,0)" xlink:href="#au"/><use transform="matrix(0.04248971193415638,0,0,0.04248971193415638,22.85946502057613,0)" xlink:href="#av"/><use transform="matrix(0.04248971193415638,0,0,0.04248971193415638,31.357407407407408,0)" xlink:href="#aw"/><use transform="matrix(0.04248971193415638,0,0,0.04248971193415638,36.413683127572014,0)" xlink:href="#ax"/><use transform="matrix(0.04248971193415638,0,0,0.04248971193415638,47.41851851851852,0)" xlink:href="#ay"/><use transform="matrix(0.04248971193415638,0,0,0.04248971193415638,55.916460905349794,0)" xlink:href="#au"/></g><path fill="#a9afb8" d="M197 0v-115H63V0H30v-248h33v105h134v-105h34V0h-34" id="az"/><path fill="#a9afb8" d="M135-143c-3-34-86-38-87 0 15 53 115 12 119 90S17 21 10-45l28-5c4 36 97 45 98 0-10-56-113-15-118-90-4-57 82-63 122-42 12 7 21 19 24 35" id="aA"/><path fill="#a9afb8" d="M84 4C-5 8 30-112 23-190h32v120c0 31 7 50 39 49 72-2 45-101 50-169h31l1 190h-30c-1-10 1-25-2-33-11 22-28 36-60 37" id="aB"/><g id="g"><use transform="matrix(0.04248971193415638,0,0,0.04248971193415638,0,0)" xlink:href="#az"/><use transform="matrix(0.04248971193415638,0,0,0.04248971193415638,11.004835390946502,0)" xlink:href="#aA"/><use transform="matrix(0.04248971193415638,0,0,0.04248971193415638,18.65298353909465,0)" xlink:href="#aB"/></g><path fill="#a9afb8" d="M32 76v-337h29V76H32" id="aC"/><use transform="matrix(0.04248971193415638,0,0,0.04248971193415638,0,0)" xlink:href="#aC" id="h"/><path fill="#a9afb8" d="M100-194c62-1 85 37 85 99 1 63-27 99-86 99S16-35 15-95c0-66 28-99 85-99zM99-20c44 1 53-31 53-75 0-43-8-75-51-75s-53 32-53 75 10 74 51 75" id="aD"/><path fill="#a9afb8" d="M108 0H70L1-190h34L89-25l56-165h34" id="aE"/><path fill="#a9afb8" d="M100-194c63 0 86 42 84 106H49c0 40 14 67 53 68 26 1 43-12 49-29l28 8c-11 28-37 45-77 45C44 4 14-33 15-96c1-61 26-98 85-98zm52 81c6-60-76-77-97-28-3 7-6 17-6 28h103" id="aF"/><path fill="#a9afb8" d="M210-169c-67 3-38 105-44 169h-31v-121c0-29-5-50-35-48C34-165 62-65 56 0H25l-1-190h30c1 10-1 24 2 32 10-44 99-50 107 0 11-21 27-35 58-36 85-2 47 119 55 194h-31v-121c0-29-5-49-35-48" id="aG"/><path fill="#a9afb8" d="M115-194c53 0 69 39 70 98 0 66-23 100-70 100C84 3 66-7 56-30L54 0H23l1-261h32v101c10-23 28-34 59-34zm-8 174c40 0 45-34 45-75 0-40-5-75-45-74-42 0-51 32-51 76 0 43 10 73 51 73" id="aH"/><path fill="#a9afb8" d="M114-163C36-179 61-72 57 0H25l-1-190h30c1 12-1 29 2 39 6-27 23-49 58-41v29" id="aI"/><g id="i"><use transform="matrix(0.04248971193415638,0,0,0.04248971193415638,0,0)" xlink:href="#ax"/><use transform="matrix(0.04248971193415638,0,0,0.04248971193415638,11.004835390946502,0)" xlink:href="#aD"/><use transform="matrix(0.04248971193415638,0,0,0.04248971193415638,19.502777777777776,0)" xlink:href="#aE"/><use transform="matrix(0.04248971193415638,0,0,0.04248971193415638,27.150925925925925,0)" xlink:href="#aF"/><use transform="matrix(0.04248971193415638,0,0,0.04248971193415638,35.6488683127572,0)" xlink:href="#aG"/><use transform="matrix(0.04248971193415638,0,0,0.04248971193415638,48.35329218106995,0)" xlink:href="#aH"/><use transform="matrix(0.04248971193415638,0,0,0.04248971193415638,56.851234567901244,0)" xlink:href="#aF"/><use transform="matrix(0.04248971193415638,0,0,0.04248971193415638,65.34917695473251,0)" xlink:href="#aI"/></g><path fill="#a9afb8" d="M64 0c3-98 48-159 88-221H18v-27h164v26C143-157 98-101 97 0H64" id="aJ"/><path fill="#a9afb8" d="M68-38c1 34 0 65-14 84H32c9-13 17-26 17-46H33v-38h35" id="aK"/><g id="j"><use transform="matrix(0.04248971193415638,0,0,0.04248971193415638,0,0)" xlink:href="#aJ"/><use transform="matrix(0.04248971193415638,0,0,0.04248971193415638,8.497942386831275,0)" xlink:href="#aK"/></g><path fill="#a9afb8" d="M101-251c82-7 93 87 43 132L82-64C71-53 59-42 53-27h129V0H18c2-99 128-94 128-182 0-28-16-43-45-43s-46 15-49 41l-32-3c6-41 34-60 81-64" id="aL"/><path fill="#a9afb8" d="M101-251c68 0 85 55 85 127S166 4 100 4C33 4 14-52 14-124c0-73 17-127 87-127zm-1 229c47 0 54-49 54-102s-4-102-53-102c-51 0-55 48-55 102 0 53 5 102 54 102" id="aM"/><path fill="#a9afb8" d="M126-127c33 6 58 20 58 59 0 88-139 92-164 29-3-8-5-16-6-25l32-3c6 27 21 44 54 44 32 0 52-15 52-46 0-38-36-46-79-43v-28c39 1 72-4 72-42 0-27-17-43-46-43-28 0-47 15-49 41l-32-3c6-42 35-63 81-64 48-1 79 21 79 65 0 36-21 52-52 59" id="aN"/><g id="k"><use transform="matrix(0.04248971193415638,0,0,0.04248971193415638,0,0)" xlink:href="#aL"/><use transform="matrix(0.04248971193415638,0,0,0.04248971193415638,8.497942386831275,0)" xlink:href="#aM"/><use transform="matrix(0.04248971193415638,0,0,0.04248971193415638,16.99588477366255,0)" xlink:href="#aL"/><use transform="matrix(0.04248971193415638,0,0,0.04248971193415638,25.493827160493822,0)" xlink:href="#aN"/></g><path fill="#333" d="M182-130c37 4 62 22 62 59C244 23 116-4 24 0v-248c84 5 203-23 205 63 0 31-19 50-47 55zM76-148c40-3 101 13 101-30 0-44-60-28-101-31v61zm0 110c48-3 116 14 116-37 0-48-69-32-116-35v72" id="aO"/><path fill="#333" d="M133-34C117-15 103 5 69 4 32 3 11-16 11-54c-1-60 55-63 116-61 1-26-3-47-28-47-18 1-26 9-28 27l-52-2c7-38 36-58 82-57s74 22 75 68l1 82c-1 14 12 18 25 15v27c-30 8-71 5-69-32zm-48 3c29 0 43-24 42-57-32 0-66-3-65 30 0 17 8 27 23 27" id="aP"/><path fill="#333" d="M137-138c1-29-70-34-71-4 15 46 118 7 119 86 1 83-164 76-172 9l43-7c4 19 20 25 44 25 33 8 57-30 24-41C81-84 22-81 20-136c-2-80 154-74 161-7" id="aQ"/><path fill="#333" d="M185-48c-13 30-37 53-82 52C43 2 14-33 14-96s30-98 90-98c62 0 83 45 84 108H66c0 31 8 55 39 56 18 0 30-7 34-22zm-45-69c5-46-57-63-70-21-2 6-4 13-4 21h74" id="aR"/><path fill="#333" d="M24 0v-248h52V0H24" id="aS"/><path fill="#333" d="M135-194c87-1 58 113 63 194h-50c-7-57 23-157-34-157-59 0-34 97-39 157H25l-1-190h47c2 12-1 28 3 38 12-26 28-41 61-42" id="aT"/><path fill="#333" d="M128 0H69L1-190h53L99-40l48-150h52" id="aU"/><path fill="#333" d="M25 0v-261h50V0H25" id="aV"/><path fill="#333" d="M25-224v-37h50v37H25zM25 0v-190h50V0H25" id="aW"/><path fill="#333" d="M88-194c31-1 46 15 58 34l-1-101h50l1 261h-48c-2-10 0-23-3-31C134-8 116 4 84 4 32 4 16-41 15-95c0-56 19-97 73-99zm17 164c33 0 40-30 41-66 1-37-9-64-41-64s-38 30-39 65c0 43 13 65 39 65" id="aX"/><path fill="#333" d="M24-248c120-7 223 5 221 122C244-46 201 0 124 0H24v-248zM76-40c74 7 117-18 117-86 0-67-45-88-117-82v168" id="aY"/><path fill="#333" d="M115-3C79 11 28 4 28-45v-112H4v-33h27l15-45h31v45h36v33H77v99c-1 23 16 31 38 25v30" id="aZ"/><path fill="#333" d="M24 0v-248h195v40H76v63h132v40H76v65h150V0H24" id="ba"/><path fill="#333" d="M144 0l-44-69L55 0H2l70-98-66-92h53l41 62 40-62h54l-67 91 71 99h-54" id="bb"/><path fill="#333" d="M190-63c-7 42-38 67-86 67-59 0-84-38-90-98-12-110 154-137 174-36l-49 2c-2-19-15-32-35-32-30 0-35 28-38 64-6 74 65 87 74 30" id="bc"/><path fill="#333" d="M135-194c53 0 70 44 70 98 0 56-19 98-73 100-31 1-45-17-59-34 3 33 2 69 2 105H25l-1-265h48c2 10 0 23 3 31 11-24 29-35 60-35zM114-30c33 0 39-31 40-66 0-38-9-64-40-64-56 0-55 130 0 130" id="bd"/><path fill="#333" d="M110-194c64 0 96 36 96 99 0 64-35 99-97 99-61 0-95-36-95-99 0-62 34-99 96-99zm-1 164c35 0 45-28 45-65 0-40-10-65-43-65-34 0-45 26-45 65 0 36 10 65 43 65" id="be"/><g id="l"><use transform="matrix(0.05,0,0,0.05,0,0)" xlink:href="#aO"/><use transform="matrix(0.05,0,0,0.05,12.950000000000001,0)" xlink:href="#aP"/><use transform="matrix(0.05,0,0,0.05,22.950000000000003,0)" xlink:href="#aQ"/><use transform="matrix(0.05,0,0,0.05,32.95,0)" xlink:href="#aR"/><use transform="matrix(0.05,0,0,0.05,42.95,0)" xlink:href="#aS"/><use transform="matrix(0.05,0,0,0.05,47.95,0)" xlink:href="#aT"/><use transform="matrix(0.05,0,0,0.05,58.900000000000006,0)" xlink:href="#aU"/><use transform="matrix(0.05,0,0,0.05,68.9,0)" xlink:href="#aP"/><use transform="matrix(0.05,0,0,0.05,78.9,0)" xlink:href="#aV"/><use transform="matrix(0.05,0,0,0.05,83.9,0)" xlink:href="#aW"/><use transform="matrix(0.05,0,0,0.05,88.9,0)" xlink:href="#aX"/><use transform="matrix(0.05,0,0,0.05,99.85000000000001,0)" xlink:href="#aY"/><use transform="matrix(0.05,0,0,0.05,112.80000000000001,0)" xlink:href="#aP"/><use transform="matrix(0.05,0,0,0.05,122.80000000000001,0)" xlink:href="#aZ"/><use transform="matrix(0.05,0,0,0.05,128.75,0)" xlink:href="#aP"/><use transform="matrix(0.05,0,0,0.05,138.75,0)" xlink:href="#ba"/><use transform="matrix(0.05,0,0,0.05,150.75,0)" xlink:href="#bb"/><use transform="matrix(0.05,0,0,0.05,160.75,0)" xlink:href="#bc"/><use transform="matrix(0.05,0,0,0.05,170.75,0)" xlink:href="#aR"/><use transform="matrix(0.05,0,0,0.05,180.75,0)" xlink:href="#bd"/><use transform="matrix(0.05,0,0,0.05,191.7,0)" xlink:href="#aZ"/><use transform="matrix(0.05,0,0,0.05,197.64999999999998,0)" xlink:href="#aW"/><use transform="matrix(0.05,0,0,0.05,202.64999999999998,0)" xlink:href="#be"/><use transform="matrix(0.05,0,0,0.05,213.59999999999997,0)" xlink:href="#aT"/></g><path fill="#333" d="M67-125c0 53 21 87 73 88 37 1 54-22 65-47l45 17C233-25 199 4 140 4 58 4 20-42 15-125 8-235 124-281 211-232c18 10 29 29 36 50l-46 12c-8-25-30-41-62-41-52 0-71 34-72 86" id="bf"/><g id="m"><use transform="matrix(0.05,0,0,0.05,0,0)" xlink:href="#bf"/><use transform="matrix(0.05,0,0,0.05,12.950000000000001,0)" xlink:href="#aV"/><use transform="matrix(0.05,0,0,0.05,17.950000000000003,0)" xlink:href="#aP"/><use transform="matrix(0.05,0,0,0.05,27.950000000000003,0)" xlink:href="#aQ"/><use transform="matrix(0.05,0,0,0.05,37.95,0)" xlink:href="#aQ"/></g><path fill="#333" d="M16-82v-28h88v28H16" id="bg"/><use transform="matrix(0.05,0,0,0.05,0,0)" xlink:href="#bg" id="n"/><path fill="#333" d="M135-143c-3-34-86-38-87 0 15 53 115 12 119 90S17 21 10-45l28-5c4 36 97 45 98 0-10-56-113-15-118-90-4-57 82-63 122-42 12 7 21 19 24 35" id="bh"/><path fill="#333" d="M100-194c63 0 86 42 84 106H49c0 40 14 67 53 68 26 1 43-12 49-29l28 8c-11 28-37 45-77 45C44 4 14-33 15-96c1-61 26-98 85-98zm52 81c6-60-76-77-97-28-3 7-6 17-6 28h103" id="bi"/><path fill="#333" d="M114-163C36-179 61-72 57 0H25l-1-190h30c1 12-1 29 2 39 6-27 23-49 58-41v29" id="bj"/><path fill="#333" d="M24-231v-30h32v30H24zM24 0v-190h32V0H24" id="bk"/><path fill="#333" d="M141-36C126-15 110 5 73 4 37 3 15-17 15-53c-1-64 63-63 125-63 3-35-9-54-41-54-24 1-41 7-42 31l-33-3c5-37 33-52 76-52 45 0 72 20 72 64v82c-1 20 7 32 28 27v20c-31 9-61-2-59-35zM48-53c0 20 12 33 32 33 41-3 63-29 60-74-43 2-92-5-92 41" id="bl"/><path fill="#333" d="M24 0v-261h32V0H24" id="bm"/><path fill="#333" d="M137 0h-34L2-248h35l83 218 83-218h36" id="bn"/><path fill="#333" d="M100-194c62-1 85 37 85 99 1 63-27 99-86 99S16-35 15-95c0-66 28-99 85-99zM99-20c44 1 53-31 53-75 0-43-8-75-51-75s-53 32-53 75 10 74 51 75" id="bo"/><path fill="#333" d="M117-194c89-4 53 116 60 194h-32v-121c0-31-8-49-39-48C34-167 62-67 57 0H25l-1-190h30c1 10-1 24 2 32 11-22 29-35 61-36" id="bp"/><path fill="#333" d="M232-93c-1 65-40 97-104 97C67 4 28-28 28-90v-158h33c8 89-33 224 67 224 102 0 64-133 71-224h33v155" id="bq"/><path fill="#333" d="M33 0v-248h34V0H33" id="br"/><path fill="#333" d="M30-248c118-7 216 8 213 122C240-48 200 0 122 0H30v-248zM63-27c89 8 146-16 146-99s-60-101-146-95v194" id="bs"/><path fill="#333" d="M33-154v-36h34v36H33zM33 0v-36h34V0H33" id="bt"/><g id="o"><use transform="matrix(0.05,0,0,0.05,0,0)" xlink:href="#bh"/><use transform="matrix(0.05,0,0,0.05,9,0)" xlink:href="#bi"/><use transform="matrix(0.05,0,0,0.05,19,0)" xlink:href="#bj"/><use transform="matrix(0.05,0,0,0.05,24.95,0)" xlink:href="#bk"/><use transform="matrix(0.05,0,0,0.05,28.899999999999995,0)" xlink:href="#bl"/><use transform="matrix(0.05,0,0,0.05,38.9,0)" xlink:href="#bm"/><use transform="matrix(0.05,0,0,0.05,42.85,0)" xlink:href="#bn"/><use transform="matrix(0.05,0,0,0.05,53.85,0)" xlink:href="#bi"/><use transform="matrix(0.05,0,0,0.05,63.85,0)" xlink:href="#bj"/><use transform="matrix(0.05,0,0,0.05,69.8,0)" xlink:href="#bh"/><use transform="matrix(0.05,0,0,0.05,78.8,0)" xlink:href="#bk"/><use transform="matrix(0.05,0,0,0.05,82.75,0)" xlink:href="#bo"/><use transform="matrix(0.05,0,0,0.05,92.75,0)" xlink:href="#bp"/><use transform="matrix(0.05,0,0,0.05,102.75,0)" xlink:href="#bq"/><use transform="matrix(0.05,0,0,0.05,115.7,0)" xlink:href="#br"/><use transform="matrix(0.05,0,0,0.05,120.7,0)" xlink:href="#bs"/><use transform="matrix(0.05,0,0,0.05,133.65,0)" xlink:href="#bt"/></g><path fill="#333" d="M59-47c-2 24 18 29 38 22v24C64 9 27 4 27-40v-127H5v-23h24l9-43h21v43h35v23H59v120" id="bu"/><g id="p"><use transform="matrix(0.05,0,0,0.05,0,0)" xlink:href="#br"/><use transform="matrix(0.05,0,0,0.05,5,0)" xlink:href="#bp"/><use transform="matrix(0.05,0,0,0.05,15,0)" xlink:href="#bu"/></g><path fill="#333" d="M85-194c31 0 48 13 60 33l-1-100h32l1 261h-30c-2-10 0-23-3-31C134-8 116 4 85 4 32 4 16-35 15-94c0-66 23-100 70-100zm9 24c-40 0-46 34-46 75 0 40 6 74 45 74 42 0 51-32 51-76 0-42-9-74-50-73" id="bv"/><path fill="#333" d="M127-220V0H93v-220H8v-28h204v28h-85" id="bw"/><path fill="#333" d="M179-190L93 31C79 59 56 82 12 73V49c39 6 53-20 64-50L1-190h34L92-34l54-156h33" id="bx"/><path fill="#333" d="M115-194c55 1 70 41 70 98S169 2 115 4C84 4 66-9 55-30l1 105H24l-1-265h31l2 30c10-21 28-34 59-34zm-8 174c40 0 45-34 45-75s-6-73-45-74c-42 0-51 32-51 76 0 43 10 73 51 73" id="by"/><g id="q"><use transform="matrix(0.05,0,0,0.05,0,0)" xlink:href="#bv"/><use transform="matrix(0.05,0,0,0.05,10,0)" xlink:href="#bl"/><use transform="matrix(0.05,0,0,0.05,20,0)" xlink:href="#bu"/><use transform="matrix(0.05,0,0,0.05,25,0)" xlink:href="#bl"/><use transform="matrix(0.05,0,0,0.05,35,0)" xlink:href="#bw"/><use transform="matrix(0.05,0,0,0.05,44.95,0)" xlink:href="#bx"/><use transform="matrix(0.05,0,0,0.05,53.95,0)" xlink:href="#by"/><use transform="matrix(0.05,0,0,0.05,63.95,0)" xlink:href="#bi"/><use transform="matrix(0.05,0,0,0.05,73.95,0)" xlink:href="#bt"/></g><path fill="#333" d="M185-189c-5-48-123-54-124 2 14 75 158 14 163 119 3 78-121 87-175 55-17-10-28-26-33-46l33-7c5 56 141 63 141-1 0-78-155-14-162-118-5-82 145-84 179-34 5 7 8 16 11 25" id="bz"/><path fill="#333" d="M177-190C167-65 218 103 67 71c-23-6-38-20-44-43l32-5c15 47 100 32 89-28v-30C133-14 115 1 83 1 29 1 15-40 15-95c0-56 16-97 71-98 29-1 48 16 59 35 1-10 0-23 2-32h30zM94-22c36 0 50-32 50-73 0-42-14-75-50-75-39 0-46 34-46 75s6 73 46 73" id="bA"/><g id="r"><use transform="matrix(0.05,0,0,0.05,0,0)" xlink:href="#bz"/><use transform="matrix(0.05,0,0,0.05,12,0)" xlink:href="#bu"/><use transform="matrix(0.05,0,0,0.05,17,0)" xlink:href="#bj"/><use transform="matrix(0.05,0,0,0.05,22.95,0)" xlink:href="#bk"/><use transform="matrix(0.05,0,0,0.05,26.899999999999995,0)" xlink:href="#bp"/><use transform="matrix(0.05,0,0,0.05,36.9,0)" xlink:href="#bA"/></g><path fill="#333" d="M118-107v75H92v-75H18v-26h74v-75h26v75h74v26h-74" id="bB"/><use transform="matrix(0.05,0,0,0.05,0,0)" xlink:href="#bB" id="s"/><path fill="#333" d="M87 75C49 33 22-17 22-94c0-76 28-126 65-167h31c-38 41-64 92-64 168S80 34 118 75H87" id="bC"/><path fill="#333" d="M33-261c38 41 65 92 65 168S71 34 33 75H2C39 34 66-17 66-93S39-220 2-261h31" id="bD"/><g id="t"><use transform="matrix(0.05,0,0,0.05,0,0)" xlink:href="#bA"/><use transform="matrix(0.05,0,0,0.05,10,0)" xlink:href="#bi"/><use transform="matrix(0.05,0,0,0.05,20,0)" xlink:href="#bu"/><use transform="matrix(0.05,0,0,0.05,25,0)" xlink:href="#bs"/><use transform="matrix(0.05,0,0,0.05,37.95,0)" xlink:href="#bl"/><use transform="matrix(0.05,0,0,0.05,47.95,0)" xlink:href="#bu"/><use transform="matrix(0.05,0,0,0.05,52.95,0)" xlink:href="#bl"/><use transform="matrix(0.05,0,0,0.05,62.95,0)" xlink:href="#bw"/><use transform="matrix(0.05,0,0,0.05,72.9,0)" xlink:href="#bx"/><use transform="matrix(0.05,0,0,0.05,81.9,0)" xlink:href="#by"/><use transform="matrix(0.05,0,0,0.05,91.9,0)" xlink:href="#bi"/><use transform="matrix(0.05,0,0,0.05,101.9,0)" xlink:href="#bC"/><use transform="matrix(0.05,0,0,0.05,107.85000000000001,0)" xlink:href="#bD"/><use transform="matrix(0.05,0,0,0.05,113.80000000000001,0)" xlink:href="#bt"/></g><g id="u"><use transform="matrix(0.05,0,0,0.05,0,0)" xlink:href="#aS"/><use transform="matrix(0.05,0,0,0.05,5,0)" xlink:href="#aT"/><use transform="matrix(0.05,0,0,0.05,15.950000000000001,0)" xlink:href="#aU"/><use transform="matrix(0.05,0,0,0.05,25.950000000000003,0)" xlink:href="#aP"/><use transform="matrix(0.05,0,0,0.05,35.95,0)" xlink:href="#aV"/><use transform="matrix(0.05,0,0,0.05,40.95,0)" xlink:href="#aW"/><use transform="matrix(0.05,0,0,0.05,45.95,0)" xlink:href="#aX"/><use transform="matrix(0.05,0,0,0.05,56.900000000000006,0)" xlink:href="#aY"/><use transform="matrix(0.05,0,0,0.05,69.85000000000001,0)" xlink:href="#aP"/><use transform="matrix(0.05,0,0,0.05,79.85000000000001,0)" xlink:href="#aZ"/><use transform="matrix(0.05,0,0,0.05,85.80000000000001,0)" xlink:href="#aP"/><use transform="matrix(0.05,0,0,0.05,95.80000000000001,0)" xlink:href="#ba"/><use transform="matrix(0.05,0,0,0.05,107.80000000000001,0)" xlink:href="#bb"/><use transform="matrix(0.05,0,0,0.05,117.80000000000001,0)" xlink:href="#bc"/><use transform="matrix(0.05,0,0,0.05,127.80000000000001,0)" xlink:href="#aR"/><use transform="matrix(0.05,0,0,0.05,137.8,0)" xlink:href="#bd"/><use transform="matrix(0.05,0,0,0.05,148.75,0)" xlink:href="#aZ"/><use transform="matrix(0.05,0,0,0.05,154.7,0)" xlink:href="#aW"/><use transform="matrix(0.05,0,0,0.05,159.7,0)" xlink:href="#be"/><use transform="matrix(0.05,0,0,0.05,170.64999999999998,0)" xlink:href="#aT"/></g><path fill="#333" d="M140-251c81 0 123 46 123 126C263-46 219 4 140 4 59 4 17-45 17-125s42-126 123-126zm0 227c63 0 89-41 89-101s-29-99-89-99c-61 0-89 39-89 99S79-25 140-24" id="bE"/><path fill="#333" d="M115-194c53 0 69 39 70 98 0 66-23 100-70 100C84 3 66-7 56-30L54 0H23l1-261h32v101c10-23 28-34 59-34zm-8 174c40 0 45-34 45-75 0-40-5-75-45-74-42 0-51 32-51 76 0 43 10 73 51 73" id="bF"/><path fill="#333" d="M24-231v-30h32v30H24zM-9 49c24 4 33-6 33-30v-209h32V24c2 40-23 58-65 49V49" id="bG"/><path fill="#333" d="M96-169c-40 0-48 33-48 73s9 75 48 75c24 0 41-14 43-38l32 2c-6 37-31 61-74 61-59 0-76-41-82-99-10-93 101-131 147-64 4 7 5 14 7 22l-32 3c-4-21-16-35-41-35" id="bH"/><g id="v"><use transform="matrix(0.05,0,0,0.05,0,0)" xlink:href="#bE"/><use transform="matrix(0.05,0,0,0.05,14,0)" xlink:href="#bF"/><use transform="matrix(0.05,0,0,0.05,24,0)" xlink:href="#bG"/><use transform="matrix(0.05,0,0,0.05,27.950000000000003,0)" xlink:href="#bi"/><use transform="matrix(0.05,0,0,0.05,37.95,0)" xlink:href="#bH"/><use transform="matrix(0.05,0,0,0.05,46.95,0)" xlink:href="#bu"/></g><path fill="#333" d="M84 4C-5 8 30-112 23-190h32v120c0 31 7 50 39 49 72-2 45-101 50-169h31l1 190h-30c-1-10 1-25-2-33-11 22-28 36-60 37" id="bI"/><g id="w"><use transform="matrix(0.05,0,0,0.05,0,0)" xlink:href="#bA"/><use transform="matrix(0.05,0,0,0.05,10,0)" xlink:href="#bi"/><use transform="matrix(0.05,0,0,0.05,20,0)" xlink:href="#bu"/><use transform="matrix(0.05,0,0,0.05,25,0)" xlink:href="#bs"/><use transform="matrix(0.05,0,0,0.05,37.95,0)" xlink:href="#bl"/><use transform="matrix(0.05,0,0,0.05,47.95,0)" xlink:href="#bu"/><use transform="matrix(0.05,0,0,0.05,52.95,0)" xlink:href="#bl"/><use transform="matrix(0.05,0,0,0.05,62.95,0)" xlink:href="#bn"/><use transform="matrix(0.05,0,0,0.05,73.6,0)" xlink:href="#bl"/><use transform="matrix(0.05,0,0,0.05,83.6,0)" xlink:href="#bm"/><use transform="matrix(0.05,0,0,0.05,87.55,0)" xlink:href="#bI"/><use transform="matrix(0.05,0,0,0.05,97.55,0)" xlink:href="#bi"/><use transform="matrix(0.05,0,0,0.05,107.55000000000001,0)" xlink:href="#bC"/><use transform="matrix(0.05,0,0,0.05,113.5,0)" xlink:href="#bD"/><use transform="matrix(0.05,0,0,0.05,119.45,0)" xlink:href="#bt"/></g><g id="x"><use transform="matrix(0.05,0,0,0.05,0,0)" xlink:href="#bE"/><use transform="matrix(0.05,0,0,0.05,14,0)" xlink:href="#bF"/><use transform="matrix(0.05,0,0,0.05,24,0)" xlink:href="#bG"/><use transform="matrix(0.05,0,0,0.05,27.950000000000003,0)" xlink:href="#bi"/><use transform="matrix(0.05,0,0,0.05,37.95,0)" xlink:href="#bH"/><use transform="matrix(0.05,0,0,0.05,46.95,0)" xlink:href="#bu"/></g><g id="y"><use transform="matrix(0.05,0,0,0.05,0,0)" xlink:href="#bu"/><use transform="matrix(0.05,0,0,0.05,5,0)" xlink:href="#bo"/><use transform="matrix(0.05,0,0,0.05,15,0)" xlink:href="#bz"/><use transform="matrix(0.05,0,0,0.05,27,0)" xlink:href="#bu"/><use transform="matrix(0.05,0,0,0.05,32,0)" xlink:href="#bj"/><use transform="matrix(0.05,0,0,0.05,37.95,0)" xlink:href="#bk"/><use transform="matrix(0.05,0,0,0.05,41.900000000000006,0)" xlink:href="#bp"/><use transform="matrix(0.05,0,0,0.05,51.900000000000006,0)" xlink:href="#bA"/><use transform="matrix(0.05,0,0,0.05,61.900000000000006,0)" xlink:href="#bC"/><use transform="matrix(0.05,0,0,0.05,67.85000000000001,0)" xlink:href="#bD"/><use transform="matrix(0.05,0,0,0.05,73.80000000000001,0)" xlink:href="#bt"/></g><g id="z"><use transform="matrix(0.04938271604938272,0,0,0.04938271604938272,0,0)" xlink:href="#ba"/><use transform="matrix(0.04938271604938272,0,0,0.04938271604938272,11.851851851851853,0)" xlink:href="#bb"/><use transform="matrix(0.04938271604938272,0,0,0.04938271604938272,21.7283950617284,0)" xlink:href="#aZ"/><use transform="matrix(0.04938271604938272,0,0,0.04938271604938272,27.604938271604947,0)" xlink:href="#aR"/><use transform="matrix(0.04938271604938272,0,0,0.04938271604938272,37.48148148148149,0)" xlink:href="#aT"/><use transform="matrix(0.04938271604938272,0,0,0.04938271604938272,48.296296296296305,0)" xlink:href="#aX"/><use transform="matrix(0.04938271604938272,0,0,0.04938271604938272,59.111111111111114,0)" xlink:href="#aQ"/></g><path fill="#333" d="M76-208v77h127v40H76V0H24v-248h183v40H76" id="bJ"/><path fill="#333" d="M24 0v-248h52v208h133V0H24" id="bK"/><path fill="#333" d="M135-150c-39-12-60 13-60 57V0H25l-1-190h47c2 13-1 29 3 40 6-28 27-53 61-41v41" id="bL"/><g id="A"><use transform="matrix(0.05,0,0,0.05,0,0)" xlink:href="#bJ"/><use transform="matrix(0.05,0,0,0.05,10.950000000000001,0)" xlink:href="#aW"/><use transform="matrix(0.05,0,0,0.05,15.950000000000001,0)" xlink:href="#aV"/><use transform="matrix(0.05,0,0,0.05,20.950000000000003,0)" xlink:href="#aR"/><use transform="matrix(0.05,0,0,0.05,30.950000000000003,0)" xlink:href="#bK"/><use transform="matrix(0.05,0,0,0.05,41.900000000000006,0)" xlink:href="#be"/><use transform="matrix(0.05,0,0,0.05,52.85,0)" xlink:href="#aP"/><use transform="matrix(0.05,0,0,0.05,62.85,0)" xlink:href="#aX"/><use transform="matrix(0.05,0,0,0.05,73.80000000000001,0)" xlink:href="#aR"/><use transform="matrix(0.05,0,0,0.05,83.80000000000001,0)" xlink:href="#bL"/></g><g id="B"><use transform="matrix(0.05,0,0,0.05,0,0)" xlink:href="#bm"/><use transform="matrix(0.05,0,0,0.05,3.95,0)" xlink:href="#bk"/><use transform="matrix(0.05,0,0,0.05,7.9,0)" xlink:href="#bp"/><use transform="matrix(0.05,0,0,0.05,17.9,0)" xlink:href="#bi"/><use transform="matrix(0.05,0,0,0.05,27.899999999999995,0)" xlink:href="#bt"/></g><g id="C"><use transform="matrix(0.05,0,0,0.05,0,0)" xlink:href="#bz"/><use transform="matrix(0.05,0,0,0.05,12,0)" xlink:href="#bu"/><use transform="matrix(0.05,0,0,0.05,17,0)" xlink:href="#bj"/><use transform="matrix(0.05,0,0,0.05,22.95,0)" xlink:href="#bk"/><use transform="matrix(0.05,0,0,0.05,26.899999999999995,0)" xlink:href="#bp"/><use transform="matrix(0.05,0,0,0.05,36.9,0)" xlink:href="#bA"/></g><path fill="#333" d="M160-131c35 5 61 23 61 61C221 17 115-2 30 0v-248c76 3 177-17 177 60 0 33-19 50-47 57zm-97-11c50-1 110 9 110-42 0-47-63-36-110-37v79zm0 115c55-2 124 14 124-45 0-56-70-42-124-44v89" id="bM"/><g id="D"><use transform="matrix(0.05,0,0,0.05,0,0)" xlink:href="#bh"/><use transform="matrix(0.05,0,0,0.05,9,0)" xlink:href="#by"/><use transform="matrix(0.05,0,0,0.05,19,0)" xlink:href="#bm"/><use transform="matrix(0.05,0,0,0.05,22.95,0)" xlink:href="#bk"/><use transform="matrix(0.05,0,0,0.05,26.899999999999995,0)" xlink:href="#bu"/><use transform="matrix(0.05,0,0,0.05,31.899999999999995,0)" xlink:href="#bM"/><use transform="matrix(0.05,0,0,0.05,43.9,0)" xlink:href="#bx"/><use transform="matrix(0.05,0,0,0.05,52.900000000000006,0)" xlink:href="#bt"/></g><path fill="#333" d="M212-179c-10-28-35-45-73-45-59 0-87 40-87 99 0 60 29 101 89 101 43 0 62-24 78-52l27 14C228-24 195 4 139 4 59 4 22-46 18-125c-6-104 99-153 187-111 19 9 31 26 39 46" id="bN"/><path fill="#333" d="M210-169c-67 3-38 105-44 169h-31v-121c0-29-5-50-35-48C34-165 62-65 56 0H25l-1-190h30c1 10-1 24 2 32 10-44 99-50 107 0 11-21 27-35 58-36 85-2 47 119 55 194h-31v-121c0-29-5-49-35-48" id="bO"/><g id="E"><use transform="matrix(0.05,0,0,0.05,0,0)" xlink:href="#bm"/><use transform="matrix(0.05,0,0,0.05,3.95,0)" xlink:href="#bo"/><use transform="matrix(0.05,0,0,0.05,13.949999999999998,0)" xlink:href="#bl"/><use transform="matrix(0.05,0,0,0.05,23.95,0)" xlink:href="#bv"/><use transform="matrix(0.05,0,0,0.05,33.95,0)" xlink:href="#bN"/><use transform="matrix(0.05,0,0,0.05,46.900000000000006,0)" xlink:href="#bI"/><use transform="matrix(0.05,0,0,0.05,56.900000000000006,0)" xlink:href="#bh"/><use transform="matrix(0.05,0,0,0.05,65.9,0)" xlink:href="#bu"/><use transform="matrix(0.05,0,0,0.05,70.9,0)" xlink:href="#bo"/><use transform="matrix(0.05,0,0,0.05,80.9,0)" xlink:href="#bO"/><use transform="matrix(0.05,0,0,0.05,95.85000000000001,0)" xlink:href="#bi"/><use transform="matrix(0.05,0,0,0.05,105.85000000000001,0)" xlink:href="#bj"/><use transform="matrix(0.05,0,0,0.05,111.80000000000001,0)" xlink:href="#bC"/><use transform="matrix(0.05,0,0,0.05,117.75,0)" xlink:href="#bz"/><use transform="matrix(0.05,0,0,0.05,129.75,0)" xlink:href="#bu"/><use transform="matrix(0.05,0,0,0.05,134.75,0)" xlink:href="#bj"/><use transform="matrix(0.05,0,0,0.05,140.7,0)" xlink:href="#bk"/><use transform="matrix(0.05,0,0,0.05,144.64999999999998,0)" xlink:href="#bp"/><use transform="matrix(0.05,0,0,0.05,154.64999999999998,0)" xlink:href="#bA"/></g><path fill="#333" d="M101-234c-31-9-42 10-38 44h38v23H63V0H32v-167H5v-23h27c-7-52 17-82 69-68v24" id="bP"/><path fill="#333" d="M190 0L58-211 59 0H30v-248h39L202-35l-2-213h31V0h-41" id="bQ"/><g id="F"><use transform="matrix(0.05,0,0,0.05,0,0)" xlink:href="#bP"/><use transform="matrix(0.05,0,0,0.05,5,0)" xlink:href="#bk"/><use transform="matrix(0.05,0,0,0.05,8.95,0)" xlink:href="#bm"/><use transform="matrix(0.05,0,0,0.05,12.899999999999999,0)" xlink:href="#bi"/><use transform="matrix(0.05,0,0,0.05,22.9,0)" xlink:href="#bQ"/><use transform="matrix(0.05,0,0,0.05,35.85,0)" xlink:href="#bl"/><use transform="matrix(0.05,0,0,0.05,45.85,0)" xlink:href="#bO"/><use transform="matrix(0.05,0,0,0.05,60.800000000000004,0)" xlink:href="#bi"/><use transform="matrix(0.05,0,0,0.05,70.80000000000001,0)" xlink:href="#bD"/><use transform="matrix(0.05,0,0,0.05,76.75000000000001,0)" xlink:href="#bt"/></g><path fill="#333" d="M30 0v-248h33v221h125V0H30" id="bR"/><path fill="#333" d="M18-100v-36l175-74v27L42-118l151 64v27" id="bS"/><path fill="#333" d="M108 0H70L1-190h34L89-25l56-165h34" id="bT"/><path fill="#333" d="M18-27v-27l151-64-151-65v-27l175 74v36" id="bU"/><g id="G"><use transform="matrix(0.05,0,0,0.05,0,0)" xlink:href="#bR"/><use transform="matrix(0.05,0,0,0.05,10,0)" xlink:href="#bk"/><use transform="matrix(0.05,0,0,0.05,13.949999999999998,0)" xlink:href="#bh"/><use transform="matrix(0.05,0,0,0.05,22.95,0)" xlink:href="#bu"/><use transform="matrix(0.05,0,0,0.05,27.950000000000003,0)" xlink:href="#bS"/><use transform="matrix(0.05,0,0,0.05,38.45,0)" xlink:href="#bs"/><use transform="matrix(0.05,0,0,0.05,51.400000000000006,0)" xlink:href="#bj"/><use transform="matrix(0.05,0,0,0.05,57.35,0)" xlink:href="#bk"/><use transform="matrix(0.05,0,0,0.05,61.30000000000001,0)" xlink:href="#bT"/><use transform="matrix(0.05,0,0,0.05,70.30000000000001,0)" xlink:href="#bi"/><use transform="matrix(0.05,0,0,0.05,80.30000000000001,0)" xlink:href="#bj"/><use transform="matrix(0.05,0,0,0.05,86.25000000000001,0)" xlink:href="#bU"/></g><path fill="#333" d="M15-91v-56l181-69v40L49-119l147 57v40" id="bV"/><path fill="#333" d="M121-226c-27-7-43 5-38 36h38v33H83V0H34v-157H6v-33h28c-9-59 32-81 87-68v32" id="bW"/><path fill="#333" d="M15-22v-40l146-57-146-57v-40l181 69v56" id="bX"/><g id="H"><use transform="matrix(0.05,0,0,0.05,0,0)" xlink:href="#bV"/><use transform="matrix(0.05,0,0,0.05,10.5,0)" xlink:href="#bV"/><use transform="matrix(0.05,0,0,0.05,21,0)" xlink:href="#aS"/><use transform="matrix(0.05,0,0,0.05,26,0)" xlink:href="#aT"/><use transform="matrix(0.05,0,0,0.05,36.95,0)" xlink:href="#aZ"/><use transform="matrix(0.05,0,0,0.05,42.900000000000006,0)" xlink:href="#aR"/><use transform="matrix(0.05,0,0,0.05,52.900000000000006,0)" xlink:href="#bL"/><use transform="matrix(0.05,0,0,0.05,59.900000000000006,0)" xlink:href="#bW"/><use transform="matrix(0.05,0,0,0.05,65.85000000000001,0)" xlink:href="#aP"/><use transform="matrix(0.05,0,0,0.05,75.85000000000001,0)" xlink:href="#bc"/><use transform="matrix(0.05,0,0,0.05,85.85000000000001,0)" xlink:href="#aR"/><use transform="matrix(0.05,0,0,0.05,95.85000000000001,0)" xlink:href="#bX"/><use transform="matrix(0.05,0,0,0.05,106.35000000000001,0)" xlink:href="#bX"/></g><path fill="#333" d="M85 4C-2 5 27-109 22-190h50c7 57-23 150 33 157 60-5 35-97 40-157h50l1 190h-47c-2-12 1-28-3-38-12 25-28 42-61 42" id="bY"/><path fill="#333" d="M220-157c-53 9-28 100-34 157h-49v-107c1-27-5-49-29-50C55-147 81-57 75 0H25l-1-190h47c2 12-1 28 3 38 10-53 101-56 108 0 13-22 24-43 59-42 82 1 51 116 57 194h-49v-107c-1-25-5-48-29-50" id="bZ"/><path fill="#333" d="M-4 44V30h207v14H-4" id="ca"/><path fill="#333" d="M238-95c0 69-44 99-111 99C63 4 22-25 22-93v-155h51v151c-1 38 19 59 55 60 90 1 49-130 58-211h52v153" id="cb"/><path fill="#333" d="M169-182c-1-43-94-46-97-3 18 66 151 10 154 114 3 95-165 93-204 36-6-8-10-19-12-30l50-8c3 46 112 56 116 5-17-69-150-10-154-114-4-87 153-88 188-35 5 8 8 18 10 28" id="cc"/><g id="I"><use transform="matrix(0.05,0,0,0.05,0,0)" xlink:href="#bf"/><use transform="matrix(0.05,0,0,0.05,12.950000000000001,0)" xlink:href="#bY"/><use transform="matrix(0.05,0,0,0.05,23.900000000000002,0)" xlink:href="#aQ"/><use transform="matrix(0.05,0,0,0.05,33.900000000000006,0)" xlink:href="#aZ"/><use transform="matrix(0.05,0,0,0.05,39.85000000000001,0)" xlink:href="#be"/><use transform="matrix(0.05,0,0,0.05,50.80000000000001,0)" xlink:href="#bZ"/><use transform="matrix(0.05,0,0,0.05,66.80000000000001,0)" xlink:href="#aR"/><use transform="matrix(0.05,0,0,0.05,76.80000000000001,0)" xlink:href="#bL"/><use transform="matrix(0.05,0,0,0.05,83.80000000000001,0)" xlink:href="#aY"/><use transform="matrix(0.05,0,0,0.05,96.75000000000001,0)" xlink:href="#aP"/><use transform="matrix(0.05,0,0,0.05,106.75,0)" xlink:href="#aZ"/><use transform="matrix(0.05,0,0,0.05,112.7,0)" xlink:href="#aP"/><use transform="matrix(0.05,0,0,0.05,122.7,0)" xlink:href="#ca"/><use transform="matrix(0.05,0,0,0.05,132.70000000000002,0)" xlink:href="#cb"/><use transform="matrix(0.05,0,0,0.05,145.65,0)" xlink:href="#cc"/><use transform="matrix(0.05,0,0,0.05,157.65,0)" xlink:href="#aO"/></g><g id="J"><use transform="matrix(0.05,0,0,0.05,0,0)" xlink:href="#bf"/><use transform="matrix(0.05,0,0,0.05,12.950000000000001,0)" xlink:href="#aV"/><use transform="matrix(0.05,0,0,0.05,17.950000000000003,0)" xlink:href="#aP"/><use transform="matrix(0.05,0,0,0.05,27.950000000000003,0)" xlink:href="#aQ"/><use transform="matrix(0.05,0,0,0.05,37.95,0)" xlink:href="#aQ"/></g><g id="K"><use transform="matrix(0.05,0,0,0.05,0,0)" xlink:href="#by"/><use transform="matrix(0.05,0,0,0.05,10,0)" xlink:href="#bj"/><use transform="matrix(0.05,0,0,0.05,15.949999999999998,0)" xlink:href="#bk"/><use transform="matrix(0.05,0,0,0.05,19.9,0)" xlink:href="#bp"/><use transform="matrix(0.05,0,0,0.05,29.899999999999995,0)" xlink:href="#bu"/><use transform="matrix(0.05,0,0,0.05,34.9,0)" xlink:href="#bN"/><use transform="matrix(0.05,0,0,0.05,47.85,0)" xlink:href="#bI"/><use transform="matrix(0.05,0,0,0.05,57.85,0)" xlink:href="#bh"/><use transform="matrix(0.05,0,0,0.05,66.85,0)" xlink:href="#bu"/><use transform="matrix(0.05,0,0,0.05,71.85,0)" xlink:href="#bo"/><use transform="matrix(0.05,0,0,0.05,81.85,0)" xlink:href="#bO"/><use transform="matrix(0.05,0,0,0.05,96.8,0)" xlink:href="#bi"/><use transform="matrix(0.05,0,0,0.05,106.80000000000001,0)" xlink:href="#bj"/><use transform="matrix(0.05,0,0,0.05,112.75,0)" xlink:href="#bC"/><use transform="matrix(0.05,0,0,0.05,118.7,0)" xlink:href="#bk"/><use transform="matrix(0.05,0,0,0.05,122.65,0)" xlink:href="#bp"/><use transform="matrix(0.05,0,0,0.05,132.65,0)" xlink:href="#bu"/></g><g id="L"><use transform="matrix(0.05,0,0,0.05,0,0)" xlink:href="#bH"/><use transform="matrix(0.05,0,0,0.05,9,0)" xlink:href="#bI"/><use transform="matrix(0.05,0,0,0.05,19,0)" xlink:href="#bh"/><use transform="matrix(0.05,0,0,0.05,28,0)" xlink:href="#bu"/><use transform="matrix(0.05,0,0,0.05,33,0)" xlink:href="#bo"/><use transform="matrix(0.05,0,0,0.05,43,0)" xlink:href="#bO"/><use transform="matrix(0.05,0,0,0.05,57.95,0)" xlink:href="#bi"/><use transform="matrix(0.05,0,0,0.05,67.95,0)" xlink:href="#bj"/><use transform="matrix(0.05,0,0,0.05,73.9,0)" xlink:href="#br"/><use transform="matrix(0.05,0,0,0.05,78.9,0)" xlink:href="#bv"/><use transform="matrix(0.05,0,0,0.05,88.9,0)" xlink:href="#bD"/><use transform="matrix(0.05,0,0,0.05,94.85000000000001,0)" xlink:href="#bt"/></g><g id="M"><use transform="matrix(0.05,0,0,0.05,0,0)" xlink:href="#bT"/><use transform="matrix(0.05,0,0,0.05,9,0)" xlink:href="#bo"/><use transform="matrix(0.05,0,0,0.05,19,0)" xlink:href="#bk"/><use transform="matrix(0.05,0,0,0.05,22.95,0)" xlink:href="#bv"/></g><use transform="matrix(0.05,0,0,0.05,0,0)" xlink:href="#bB" id="N"/><path fill="#333" d="M-5 72V49h209v23H-5" id="cd"/><g id="O"><use transform="matrix(0.05,0,0,0.05,0,0)" xlink:href="#bA"/><use transform="matrix(0.05,0,0,0.05,10,0)" xlink:href="#bi"/><use transform="matrix(0.05,0,0,0.05,20,0)" xlink:href="#bu"/><use transform="matrix(0.05,0,0,0.05,25,0)" xlink:href="#bN"/><use transform="matrix(0.05,0,0,0.05,37.95,0)" xlink:href="#bI"/><use transform="matrix(0.05,0,0,0.05,47.95,0)" xlink:href="#bh"/><use transform="matrix(0.05,0,0,0.05,56.95,0)" xlink:href="#bu"/><use transform="matrix(0.05,0,0,0.05,61.95,0)" xlink:href="#bo"/><use transform="matrix(0.05,0,0,0.05,71.95,0)" xlink:href="#bO"/><use transform="matrix(0.05,0,0,0.05,86.9,0)" xlink:href="#bi"/><use transform="matrix(0.05,0,0,0.05,96.9,0)" xlink:href="#bj"/><use transform="matrix(0.05,0,0,0.05,102.85000000000001,0)" xlink:href="#cd"/><use transform="matrix(0.05,0,0,0.05,112.85000000000001,0)" xlink:href="#bq"/><use transform="matrix(0.05,0,0,0.05,125.80000000000001,0)" xlink:href="#bz"/><use transform="matrix(0.05,0,0,0.05,137.8,0)" xlink:href="#bM"/><use transform="matrix(0.05,0,0,0.05,149.8,0)" xlink:href="#bC"/><use transform="matrix(0.05,0,0,0.05,155.75,0)" xlink:href="#bk"/><use transform="matrix(0.05,0,0,0.05,159.7,0)" xlink:href="#bp"/><use transform="matrix(0.05,0,0,0.05,169.7,0)" xlink:href="#bu"/></g><g id="P"><use transform="matrix(0.05,0,0,0.05,0,0)" xlink:href="#bT"/><use transform="matrix(0.05,0,0,0.05,9,0)" xlink:href="#bo"/><use transform="matrix(0.05,0,0,0.05,19,0)" xlink:href="#bk"/><use transform="matrix(0.05,0,0,0.05,22.95,0)" xlink:href="#bv"/></g><g id="Q"><use transform="matrix(0.05,0,0,0.05,0,0)" xlink:href="#bf"/><use transform="matrix(0.05,0,0,0.05,12.950000000000001,0)" xlink:href="#bY"/><use transform="matrix(0.05,0,0,0.05,23.900000000000002,0)" xlink:href="#aQ"/><use transform="matrix(0.05,0,0,0.05,33.900000000000006,0)" xlink:href="#aZ"/><use transform="matrix(0.05,0,0,0.05,39.85000000000001,0)" xlink:href="#be"/><use transform="matrix(0.05,0,0,0.05,50.80000000000001,0)" xlink:href="#bZ"/><use transform="matrix(0.05,0,0,0.05,66.80000000000001,0)" xlink:href="#aR"/><use transform="matrix(0.05,0,0,0.05,76.80000000000001,0)" xlink:href="#bL"/><use transform="matrix(0.05,0,0,0.05,83.80000000000001,0)" xlink:href="#aY"/><use transform="matrix(0.05,0,0,0.05,96.75000000000001,0)" xlink:href="#aP"/><use transform="matrix(0.05,0,0,0.05,106.75,0)" xlink:href="#aZ"/><use transform="matrix(0.05,0,0,0.05,112.7,0)" xlink:href="#aP"/></g><g id="R"><use transform="matrix(0.05,0,0,0.05,0,0)" xlink:href="#bH"/><use transform="matrix(0.05,0,0,0.05,9,0)" xlink:href="#bI"/><use transform="matrix(0.05,0,0,0.05,19,0)" xlink:href="#bh"/><use transform="matrix(0.05,0,0,0.05,28,0)" xlink:href="#bu"/><use transform="matrix(0.05,0,0,0.05,33,0)" xlink:href="#bo"/><use transform="matrix(0.05,0,0,0.05,43,0)" xlink:href="#bO"/><use transform="matrix(0.05,0,0,0.05,57.95,0)" xlink:href="#bi"/><use transform="matrix(0.05,0,0,0.05,67.95,0)" xlink:href="#bj"/><use transform="matrix(0.05,0,0,0.05,73.9,0)" xlink:href="#br"/><use transform="matrix(0.05,0,0,0.05,78.9,0)" xlink:href="#bv"/><use transform="matrix(0.05,0,0,0.05,88.9,0)" xlink:href="#bt"/></g><g id="S"><use transform="matrix(0.05,0,0,0.05,0,0)" xlink:href="#bk"/><use transform="matrix(0.05,0,0,0.05,3.95,0)" xlink:href="#bp"/><use transform="matrix(0.05,0,0,0.05,13.949999999999998,0)" xlink:href="#bu"/></g><g id="T"><use transform="matrix(0.05,0,0,0.05,0,0)" xlink:href="#bH"/><use transform="matrix(0.05,0,0,0.05,9,0)" xlink:href="#bI"/><use transform="matrix(0.05,0,0,0.05,19,0)" xlink:href="#bh"/><use transform="matrix(0.05,0,0,0.05,28,0)" xlink:href="#bu"/><use transform="matrix(0.05,0,0,0.05,33,0)" xlink:href="#bo"/><use transform="matrix(0.05,0,0,0.05,43,0)" xlink:href="#bO"/><use transform="matrix(0.05,0,0,0.05,57.95,0)" xlink:href="#bi"/><use transform="matrix(0.05,0,0,0.05,67.95,0)" xlink:href="#bj"/><use transform="matrix(0.05,0,0,0.05,73.9,0)" xlink:href="#bQ"/><use transform="matrix(0.05,0,0,0.05,86.85000000000001,0)" xlink:href="#bl"/><use transform="matrix(0.05,0,0,0.05,96.85000000000001,0)" xlink:href="#bO"/><use transform="matrix(0.05,0,0,0.05,111.80000000000001,0)" xlink:href="#bi"/><use transform="matrix(0.05,0,0,0.05,121.80000000000001,0)" xlink:href="#bt"/></g><g id="U"><use transform="matrix(0.05,0,0,0.05,0,0)" xlink:href="#bA"/><use transform="matrix(0.05,0,0,0.05,10,0)" xlink:href="#bi"/><use transform="matrix(0.05,0,0,0.05,20,0)" xlink:href="#bu"/><use transform="matrix(0.05,0,0,0.05,25,0)" xlink:href="#bN"/><use transform="matrix(0.05,0,0,0.05,37.95,0)" xlink:href="#bI"/><use transform="matrix(0.05,0,0,0.05,47.95,0)" xlink:href="#bh"/><use transform="matrix(0.05,0,0,0.05,56.95,0)" xlink:href="#bu"/><use transform="matrix(0.05,0,0,0.05,61.95,0)" xlink:href="#bo"/><use transform="matrix(0.05,0,0,0.05,71.95,0)" xlink:href="#bO"/><use transform="matrix(0.05,0,0,0.05,86.9,0)" xlink:href="#bi"/><use transform="matrix(0.05,0,0,0.05,96.9,0)" xlink:href="#bj"/><use transform="matrix(0.05,0,0,0.05,102.85000000000001,0)" xlink:href="#br"/><use transform="matrix(0.05,0,0,0.05,107.85000000000001,0)" xlink:href="#bv"/><use transform="matrix(0.05,0,0,0.05,117.85000000000001,0)" xlink:href="#bC"/><use transform="matrix(0.05,0,0,0.05,123.80000000000001,0)" xlink:href="#bD"/><use transform="matrix(0.05,0,0,0.05,129.75,0)" xlink:href="#bt"/></g><g id="V"><use transform="matrix(0.05,0,0,0.05,0,0)" xlink:href="#bk"/><use transform="matrix(0.05,0,0,0.05,3.95,0)" xlink:href="#bp"/><use transform="matrix(0.05,0,0,0.05,13.949999999999998,0)" xlink:href="#bu"/></g><g id="W"><use transform="matrix(0.05,0,0,0.05,0,0)" xlink:href="#bA"/><use transform="matrix(0.05,0,0,0.05,10,0)" xlink:href="#bi"/><use transform="matrix(0.05,0,0,0.05,20,0)" xlink:href="#bu"/><use transform="matrix(0.05,0,0,0.05,25,0)" xlink:href="#bN"/><use transform="matrix(0.05,0,0,0.05,37.95,0)" xlink:href="#bI"/><use transform="matrix(0.05,0,0,0.05,47.95,0)" xlink:href="#bh"/><use transform="matrix(0.05,0,0,0.05,56.95,0)" xlink:href="#bu"/><use transform="matrix(0.05,0,0,0.05,61.95,0)" xlink:href="#bo"/><use transform="matrix(0.05,0,0,0.05,71.95,0)" xlink:href="#bO"/><use transform="matrix(0.05,0,0,0.05,86.9,0)" xlink:href="#bi"/><use transform="matrix(0.05,0,0,0.05,96.9,0)" xlink:href="#bj"/><use transform="matrix(0.05,0,0,0.05,102.85000000000001,0)" xlink:href="#bQ"/><use transform="matrix(0.05,0,0,0.05,115.80000000000001,0)" xlink:href="#bl"/><use transform="matrix(0.05,0,0,0.05,125.80000000000001,0)" xlink:href="#bO"/><use transform="matrix(0.05,0,0,0.05,140.75,0)" xlink:href="#bi"/><use transform="matrix(0.05,0,0,0.05,150.75,0)" xlink:href="#bC"/><use transform="matrix(0.05,0,0,0.05,156.7,0)" xlink:href="#bD"/><use transform="matrix(0.05,0,0,0.05,162.64999999999998,0)" xlink:href="#bt"/></g><path fill="#333" d="M199 0l-22-63H83L61 0H9l90-248h61L250 0h-51zm-33-102l-36-108c-10 38-24 72-36 108h72" id="ce"/><g id="X"><use transform="matrix(0.05,0,0,0.05,0,0)" xlink:href="#bf"/><use transform="matrix(0.05,0,0,0.05,12.950000000000001,0)" xlink:href="#bY"/><use transform="matrix(0.05,0,0,0.05,23.900000000000002,0)" xlink:href="#aQ"/><use transform="matrix(0.05,0,0,0.05,33.900000000000006,0)" xlink:href="#aZ"/><use transform="matrix(0.05,0,0,0.05,39.85000000000001,0)" xlink:href="#be"/><use transform="matrix(0.05,0,0,0.05,50.80000000000001,0)" xlink:href="#bZ"/><use transform="matrix(0.05,0,0,0.05,66.80000000000001,0)" xlink:href="#aR"/><use transform="matrix(0.05,0,0,0.05,76.80000000000001,0)" xlink:href="#bL"/><use transform="matrix(0.05,0,0,0.05,83.80000000000001,0)" xlink:href="#aY"/><use transform="matrix(0.05,0,0,0.05,96.75000000000001,0)" xlink:href="#aP"/><use transform="matrix(0.05,0,0,0.05,106.75,0)" xlink:href="#aZ"/><use transform="matrix(0.05,0,0,0.05,112.7,0)" xlink:href="#aP"/><use transform="matrix(0.05,0,0,0.05,122.7,0)" xlink:href="#cb"/><use transform="matrix(0.05,0,0,0.05,135.65,0)" xlink:href="#cc"/><use transform="matrix(0.05,0,0,0.05,147.65,0)" xlink:href="#aO"/><use transform="matrix(0.05,0,0,0.05,160.6,0)" xlink:href="#ce"/><use transform="matrix(0.05,0,0,0.05,173.54999999999998,0)" xlink:href="#aX"/><use transform="matrix(0.05,0,0,0.05,184.49999999999997,0)" xlink:href="#aP"/><use transform="matrix(0.05,0,0,0.05,194.49999999999997,0)" xlink:href="#bd"/><use transform="matrix(0.05,0,0,0.05,205.44999999999996,0)" xlink:href="#aZ"/><use transform="matrix(0.05,0,0,0.05,211.39999999999998,0)" xlink:href="#aR"/><use transform="matrix(0.05,0,0,0.05,221.39999999999998,0)" xlink:href="#bL"/></g><g id="Y"><use transform="matrix(0.05,0,0,0.05,0,0)" xlink:href="#bm"/><use transform="matrix(0.05,0,0,0.05,3.95,0)" xlink:href="#bi"/><use transform="matrix(0.05,0,0,0.05,13.949999999999998,0)" xlink:href="#bA"/><use transform="matrix(0.05,0,0,0.05,23.95,0)" xlink:href="#bl"/><use transform="matrix(0.05,0,0,0.05,33.95,0)" xlink:href="#bH"/><use transform="matrix(0.05,0,0,0.05,42.95,0)" xlink:href="#bx"/><use transform="matrix(0.05,0,0,0.05,51.95,0)" xlink:href="#bN"/><use transform="matrix(0.05,0,0,0.05,64.9,0)" xlink:href="#bI"/><use transform="matrix(0.05,0,0,0.05,74.9,0)" xlink:href="#bh"/><use transform="matrix(0.05,0,0,0.05,83.9,0)" xlink:href="#bu"/><use transform="matrix(0.05,0,0,0.05,88.9,0)" xlink:href="#bo"/><use transform="matrix(0.05,0,0,0.05,98.9,0)" xlink:href="#bO"/><use transform="matrix(0.05,0,0,0.05,113.85000000000001,0)" xlink:href="#bi"/><use transform="matrix(0.05,0,0,0.05,123.85000000000001,0)" xlink:href="#bj"/><use transform="matrix(0.05,0,0,0.05,129.8,0)" xlink:href="#bs"/><use transform="matrix(0.05,0,0,0.05,142.75,0)" xlink:href="#bl"/><use transform="matrix(0.05,0,0,0.05,152.75,0)" xlink:href="#bu"/><use transform="matrix(0.05,0,0,0.05,157.75,0)" xlink:href="#bl"/><use transform="matrix(0.05,0,0,0.05,167.75,0)" xlink:href="#bt"/></g><g id="Z"><use transform="matrix(0.05,0,0,0.05,0,0)" xlink:href="#bR"/><use transform="matrix(0.05,0,0,0.05,10,0)" xlink:href="#bi"/><use transform="matrix(0.05,0,0,0.05,20,0)" xlink:href="#bA"/><use transform="matrix(0.05,0,0,0.05,30,0)" xlink:href="#bl"/><use transform="matrix(0.05,0,0,0.05,40,0)" xlink:href="#bH"/><use transform="matrix(0.05,0,0,0.05,49,0)" xlink:href="#bx"/><use transform="matrix(0.05,0,0,0.05,58,0)" xlink:href="#bN"/><use transform="matrix(0.05,0,0,0.05,70.95,0)" xlink:href="#bI"/><use transform="matrix(0.05,0,0,0.05,80.95,0)" xlink:href="#bh"/><use transform="matrix(0.05,0,0,0.05,89.95,0)" xlink:href="#bu"/><use transform="matrix(0.05,0,0,0.05,94.95,0)" xlink:href="#bo"/><use transform="matrix(0.05,0,0,0.05,104.95,0)" xlink:href="#bO"/><use transform="matrix(0.05,0,0,0.05,119.9,0)" xlink:href="#bi"/><use transform="matrix(0.05,0,0,0.05,129.9,0)" xlink:href="#bj"/><use transform="matrix(0.05,0,0,0.05,135.85,0)" xlink:href="#bs"/><use transform="matrix(0.05,0,0,0.05,148.79999999999998,0)" xlink:href="#bl"/><use transform="matrix(0.05,0,0,0.05,158.79999999999998,0)" xlink:href="#bu"/><use transform="matrix(0.05,0,0,0.05,163.79999999999998,0)" xlink:href="#bl"/><use transform="matrix(0.05,0,0,0.05,173.79999999999998,0)" xlink:href="#cd"/><use transform="matrix(0.05,0,0,0.05,183.79999999999998,0)" xlink:href="#bq"/><use transform="matrix(0.05,0,0,0.05,196.74999999999997,0)" xlink:href="#bz"/><use transform="matrix(0.05,0,0,0.05,208.74999999999997,0)" xlink:href="#bM"/></g><path fill="#333" d="M197 0v-115H63V0H30v-248h33v105h134v-105h34V0h-34" id="cf"/><path fill="#333" d="M30-248c87 1 191-15 191 75 0 78-77 80-158 76V0H30v-248zm33 125c57 0 124 11 124-50 0-59-68-47-124-48v98" id="cg"/><g id="aa"><use transform="matrix(0.05,0,0,0.05,0,0)" xlink:href="#bA"/><use transform="matrix(0.05,0,0,0.05,10,0)" xlink:href="#bi"/><use transform="matrix(0.05,0,0,0.05,20,0)" xlink:href="#bu"/><use transform="matrix(0.05,0,0,0.05,25,0)" xlink:href="#bN"/><use transform="matrix(0.05,0,0,0.05,37.95,0)" xlink:href="#bI"/><use transform="matrix(0.05,0,0,0.05,47.95,0)" xlink:href="#bh"/><use transform="matrix(0.05,0,0,0.05,56.95,0)" xlink:href="#bu"/><use transform="matrix(0.05,0,0,0.05,61.95,0)" xlink:href="#bo"/><use transform="matrix(0.05,0,0,0.05,71.95,0)" xlink:href="#bO"/><use transform="matrix(0.05,0,0,0.05,86.9,0)" xlink:href="#bi"/><use transform="matrix(0.05,0,0,0.05,96.9,0)" xlink:href="#bj"/><use transform="matrix(0.05,0,0,0.05,102.85000000000001,0)" xlink:href="#cd"/><use transform="matrix(0.05,0,0,0.05,112.85000000000001,0)" xlink:href="#cf"/><use transform="matrix(0.05,0,0,0.05,125.80000000000001,0)" xlink:href="#bw"/><use transform="matrix(0.05,0,0,0.05,136.75,0)" xlink:href="#bw"/><use transform="matrix(0.05,0,0,0.05,147.7,0)" xlink:href="#cg"/><use transform="matrix(0.05,0,0,0.05,159.7,0)" xlink:href="#bz"/><use transform="matrix(0.05,0,0,0.05,171.7,0)" xlink:href="#bC"/><use transform="matrix(0.05,0,0,0.05,177.64999999999998,0)" xlink:href="#bk"/><use transform="matrix(0.05,0,0,0.05,181.59999999999997,0)" xlink:href="#bp"/><use transform="matrix(0.05,0,0,0.05,191.59999999999997,0)" xlink:href="#bu"/></g><path fill="#333" d="M186 0v-106H76V0H24v-248h52v99h110v-99h50V0h-50" id="ch"/><path fill="#333" d="M136-208V0H84v-208H4v-40h212v40h-80" id="ci"/><path fill="#333" d="M24-248c93 1 206-16 204 79-1 75-69 88-152 82V0H24v-248zm52 121c47 0 100 7 100-41 0-47-54-39-100-39v80" id="cj"/><g id="ab"><use transform="matrix(0.05,0,0,0.05,0,0)" xlink:href="#bf"/><use transform="matrix(0.05,0,0,0.05,12.950000000000001,0)" xlink:href="#bY"/><use transform="matrix(0.05,0,0,0.05,23.900000000000002,0)" xlink:href="#aQ"/><use transform="matrix(0.05,0,0,0.05,33.900000000000006,0)" xlink:href="#aZ"/><use transform="matrix(0.05,0,0,0.05,39.85000000000001,0)" xlink:href="#be"/><use transform="matrix(0.05,0,0,0.05,50.80000000000001,0)" xlink:href="#bZ"/><use transform="matrix(0.05,0,0,0.05,66.80000000000001,0)" xlink:href="#aR"/><use transform="matrix(0.05,0,0,0.05,76.80000000000001,0)" xlink:href="#bL"/><use transform="matrix(0.05,0,0,0.05,83.80000000000001,0)" xlink:href="#aY"/><use transform="matrix(0.05,0,0,0.05,96.75000000000001,0)" xlink:href="#aP"/><use transform="matrix(0.05,0,0,0.05,106.75,0)" xlink:href="#aZ"/><use transform="matrix(0.05,0,0,0.05,112.7,0)" xlink:href="#aP"/><use transform="matrix(0.05,0,0,0.05,122.7,0)" xlink:href="#ca"/><use transform="matrix(0.05,0,0,0.05,132.70000000000002,0)" xlink:href="#ch"/><use transform="matrix(0.05,0,0,0.05,145.65,0)" xlink:href="#ci"/><use transform="matrix(0.05,0,0,0.05,156.6,0)" xlink:href="#ci"/><use transform="matrix(0.05,0,0,0.05,167.54999999999998,0)" xlink:href="#cj"/><use transform="matrix(0.05,0,0,0.05,179.54999999999998,0)" xlink:href="#cc"/></g><path fill="#333" d="M195-6C206 82 75 100 31 46c-4-6-6-13-8-21l49-6c3 16 16 24 34 25 40 0 42-37 40-79-11 22-30 35-61 35-53 0-70-43-70-97 0-56 18-96 73-97 30 0 46 14 59 34l2-30h47zm-90-29c32 0 41-27 41-63 0-35-9-62-40-62-32 0-39 29-40 63 0 36 9 62 39 62" id="ck"/><path fill="#333" d="M123 10C108 53 80 86 19 72V37c35 8 53-11 59-39L3-190h52l48 148c12-52 28-100 44-148h51" id="cl"/><g id="ac"><use transform="matrix(0.05,0,0,0.05,0,0)" xlink:href="#bK"/><use transform="matrix(0.05,0,0,0.05,10.950000000000001,0)" xlink:href="#aR"/><use transform="matrix(0.05,0,0,0.05,20.950000000000003,0)" xlink:href="#ck"/><use transform="matrix(0.05,0,0,0.05,31.900000000000006,0)" xlink:href="#aP"/><use transform="matrix(0.05,0,0,0.05,41.900000000000006,0)" xlink:href="#bc"/><use transform="matrix(0.05,0,0,0.05,51.900000000000006,0)" xlink:href="#cl"/><use transform="matrix(0.05,0,0,0.05,61.900000000000006,0)" xlink:href="#bf"/><use transform="matrix(0.05,0,0,0.05,74.85000000000001,0)" xlink:href="#bY"/><use transform="matrix(0.05,0,0,0.05,85.80000000000001,0)" xlink:href="#aQ"/><use transform="matrix(0.05,0,0,0.05,95.80000000000001,0)" xlink:href="#aZ"/><use transform="matrix(0.05,0,0,0.05,101.75000000000001,0)" xlink:href="#be"/><use transform="matrix(0.05,0,0,0.05,112.7,0)" xlink:href="#bZ"/><use transform="matrix(0.05,0,0,0.05,128.70000000000002,0)" xlink:href="#aR"/><use transform="matrix(0.05,0,0,0.05,138.70000000000002,0)" xlink:href="#bL"/><use transform="matrix(0.05,0,0,0.05,145.70000000000002,0)" xlink:href="#aY"/><use transform="matrix(0.05,0,0,0.05,158.65,0)" xlink:href="#aP"/><use transform="matrix(0.05,0,0,0.05,168.65,0)" xlink:href="#aZ"/><use transform="matrix(0.05,0,0,0.05,174.6,0)" xlink:href="#aP"/><use transform="matrix(0.05,0,0,0.05,184.6,0)" xlink:href="#ca"/><use transform="matrix(0.05,0,0,0.05,194.6,0)" xlink:href="#cb"/><use transform="matrix(0.05,0,0,0.05,207.54999999999995,0)" xlink:href="#cc"/><use transform="matrix(0.05,0,0,0.05,219.54999999999995,0)" xlink:href="#aO"/></g><g id="ad"><use transform="matrix(0.05,0,0,0.05,0,0)" xlink:href="#bH"/><use transform="matrix(0.05,0,0,0.05,9,0)" xlink:href="#bI"/><use transform="matrix(0.05,0,0,0.05,19,0)" xlink:href="#bh"/><use transform="matrix(0.05,0,0,0.05,28,0)" xlink:href="#bu"/><use transform="matrix(0.05,0,0,0.05,33,0)" xlink:href="#bo"/><use transform="matrix(0.05,0,0,0.05,43,0)" xlink:href="#bO"/><use transform="matrix(0.05,0,0,0.05,57.95,0)" xlink:href="#bi"/><use transform="matrix(0.05,0,0,0.05,67.95,0)" xlink:href="#bj"/><use transform="matrix(0.05,0,0,0.05,73.9,0)" xlink:href="#bs"/><use transform="matrix(0.05,0,0,0.05,86.85000000000001,0)" xlink:href="#bl"/><use transform="matrix(0.05,0,0,0.05,96.85000000000001,0)" xlink:href="#bu"/><use transform="matrix(0.05,0,0,0.05,101.85000000000001,0)" xlink:href="#bl"/><use transform="matrix(0.05,0,0,0.05,111.85000000000001,0)" xlink:href="#bt"/></g><g id="ae"><use transform="matrix(0.05,0,0,0.05,0,0)" xlink:href="#bR"/><use transform="matrix(0.05,0,0,0.05,10,0)" xlink:href="#bk"/><use transform="matrix(0.05,0,0,0.05,13.949999999999998,0)" xlink:href="#bh"/><use transform="matrix(0.05,0,0,0.05,22.95,0)" xlink:href="#bu"/><use transform="matrix(0.05,0,0,0.05,27.950000000000003,0)" xlink:href="#bS"/><use transform="matrix(0.05,0,0,0.05,38.45,0)" xlink:href="#bN"/><use transform="matrix(0.05,0,0,0.05,51.400000000000006,0)" xlink:href="#bI"/><use transform="matrix(0.05,0,0,0.05,61.400000000000006,0)" xlink:href="#bh"/><use transform="matrix(0.05,0,0,0.05,70.4,0)" xlink:href="#bu"/><use transform="matrix(0.05,0,0,0.05,75.4,0)" xlink:href="#bo"/><use transform="matrix(0.05,0,0,0.05,85.4,0)" xlink:href="#bO"/><use transform="matrix(0.05,0,0,0.05,100.35000000000001,0)" xlink:href="#bi"/><use transform="matrix(0.05,0,0,0.05,110.35000000000001,0)" xlink:href="#bj"/><use transform="matrix(0.05,0,0,0.05,116.30000000000001,0)" xlink:href="#bs"/><use transform="matrix(0.05,0,0,0.05,129.25,0)" xlink:href="#bl"/><use transform="matrix(0.05,0,0,0.05,139.25,0)" xlink:href="#bu"/><use transform="matrix(0.05,0,0,0.05,144.25,0)" xlink:href="#bl"/><use transform="matrix(0.05,0,0,0.05,154.25,0)" xlink:href="#bU"/></g><g id="af"><use transform="matrix(0.05,0,0,0.05,0,0)" xlink:href="#bT"/><use transform="matrix(0.05,0,0,0.05,9,0)" xlink:href="#bo"/><use transform="matrix(0.05,0,0,0.05,19,0)" xlink:href="#bk"/><use transform="matrix(0.05,0,0,0.05,22.95,0)" xlink:href="#bv"/></g><g id="ag"><use transform="matrix(0.05,0,0,0.05,0,0)" xlink:href="#bP"/><use transform="matrix(0.05,0,0,0.05,5,0)" xlink:href="#bk"/><use transform="matrix(0.05,0,0,0.05,8.95,0)" xlink:href="#bp"/><use transform="matrix(0.05,0,0,0.05,18.95,0)" xlink:href="#bv"/><use transform="matrix(0.05,0,0,0.05,28.950000000000003,0)" xlink:href="#bN"/><use transform="matrix(0.05,0,0,0.05,41.9,0)" xlink:href="#bI"/><use transform="matrix(0.05,0,0,0.05,51.900000000000006,0)" xlink:href="#bh"/><use transform="matrix(0.05,0,0,0.05,60.900000000000006,0)" xlink:href="#bu"/><use transform="matrix(0.05,0,0,0.05,65.9,0)" xlink:href="#bo"/><use transform="matrix(0.05,0,0,0.05,75.9,0)" xlink:href="#bO"/><use transform="matrix(0.05,0,0,0.05,90.85000000000001,0)" xlink:href="#bi"/><use transform="matrix(0.05,0,0,0.05,100.85000000000001,0)" xlink:href="#bj"/><use transform="matrix(0.05,0,0,0.05,106.80000000000001,0)" xlink:href="#bM"/><use transform="matrix(0.05,0,0,0.05,118.80000000000001,0)" xlink:href="#bx"/><use transform="matrix(0.05,0,0,0.05,127.80000000000001,0)" xlink:href="#br"/><use transform="matrix(0.05,0,0,0.05,132.8,0)" xlink:href="#bv"/><use transform="matrix(0.05,0,0,0.05,142.8,0)" xlink:href="#bC"/><use transform="matrix(0.05,0,0,0.05,148.75,0)" xlink:href="#bk"/><use transform="matrix(0.05,0,0,0.05,152.7,0)" xlink:href="#bp"/><use transform="matrix(0.05,0,0,0.05,162.7,0)" xlink:href="#bu"/></g><g id="ah"><use transform="matrix(0.05,0,0,0.05,0,0)" xlink:href="#bH"/><use transform="matrix(0.05,0,0,0.05,9,0)" xlink:href="#bI"/><use transform="matrix(0.05,0,0,0.05,19,0)" xlink:href="#bh"/><use transform="matrix(0.05,0,0,0.05,28,0)" xlink:href="#bu"/><use transform="matrix(0.05,0,0,0.05,33,0)" xlink:href="#bo"/><use transform="matrix(0.05,0,0,0.05,43,0)" xlink:href="#bO"/><use transform="matrix(0.05,0,0,0.05,57.95,0)" xlink:href="#bi"/><use transform="matrix(0.05,0,0,0.05,67.95,0)" xlink:href="#bj"/><use transform="matrix(0.05,0,0,0.05,73.9,0)" xlink:href="#br"/><use transform="matrix(0.05,0,0,0.05,78.9,0)" xlink:href="#bv"/><use transform="matrix(0.05,0,0,0.05,88.9,0)" xlink:href="#bD"/><use transform="matrix(0.05,0,0,0.05,94.85000000000001,0)" xlink:href="#bt"/></g><g id="ai"><use transform="matrix(0.05,0,0,0.05,0,0)" xlink:href="#bE"/><use transform="matrix(0.05,0,0,0.05,14,0)" xlink:href="#by"/><use transform="matrix(0.05,0,0,0.05,24,0)" xlink:href="#bu"/><use transform="matrix(0.05,0,0,0.05,29,0)" xlink:href="#bk"/><use transform="matrix(0.05,0,0,0.05,32.95,0)" xlink:href="#bo"/><use transform="matrix(0.05,0,0,0.05,42.95,0)" xlink:href="#bp"/><use transform="matrix(0.05,0,0,0.05,52.95,0)" xlink:href="#bl"/><use transform="matrix(0.05,0,0,0.05,62.95,0)" xlink:href="#bm"/><use transform="matrix(0.05,0,0,0.05,66.9,0)" xlink:href="#bS"/><use transform="matrix(0.05,0,0,0.05,77.4,0)" xlink:href="#bN"/><use transform="matrix(0.05,0,0,0.05,90.35000000000001,0)" xlink:href="#bI"/><use transform="matrix(0.05,0,0,0.05,100.35000000000001,0)" xlink:href="#bh"/><use transform="matrix(0.05,0,0,0.05,109.35000000000001,0)" xlink:href="#bu"/><use transform="matrix(0.05,0,0,0.05,114.35000000000001,0)" xlink:href="#bo"/><use transform="matrix(0.05,0,0,0.05,124.35000000000001,0)" xlink:href="#bO"/><use transform="matrix(0.05,0,0,0.05,139.3,0)" xlink:href="#bi"/><use transform="matrix(0.05,0,0,0.05,149.3,0)" xlink:href="#bj"/><use transform="matrix(0.05,0,0,0.05,155.25,0)" xlink:href="#bs"/><use transform="matrix(0.05,0,0,0.05,168.2,0)" xlink:href="#bl"/><use transform="matrix(0.05,0,0,0.05,178.2,0)" xlink:href="#bu"/><use transform="matrix(0.05,0,0,0.05,183.2,0)" xlink:href="#bl"/><use transform="matrix(0.05,0,0,0.05,193.2,0)" xlink:href="#bU"/></g><path fill="#333" d="M175 0L67-191c6 58 2 128 3 191H24v-248h59L193-55c-6-58-2-129-3-193h46V0h-61" id="cm"/><path fill="#333" d="M231 0h-52l-39-155L100 0H48L-1-190h46L77-45c9-52 24-97 36-145h53l37 145 32-145h46" id="cn"/><g id="aj"><use transform="matrix(0.05,0,0,0.05,0,0)" xlink:href="#cm"/><use transform="matrix(0.05,0,0,0.05,12.950000000000001,0)" xlink:href="#aR"/><use transform="matrix(0.05,0,0,0.05,22.950000000000003,0)" xlink:href="#cn"/><use transform="matrix(0.05,0,0,0.05,36.95,0)" xlink:href="#bf"/><use transform="matrix(0.05,0,0,0.05,49.900000000000006,0)" xlink:href="#bY"/><use transform="matrix(0.05,0,0,0.05,60.85,0)" xlink:href="#aQ"/><use transform="matrix(0.05,0,0,0.05,70.85000000000001,0)" xlink:href="#aZ"/><use transform="matrix(0.05,0,0,0.05,76.80000000000001,0)" xlink:href="#be"/><use transform="matrix(0.05,0,0,0.05,87.75000000000001,0)" xlink:href="#bZ"/><use transform="matrix(0.05,0,0,0.05,103.75,0)" xlink:href="#aR"/><use transform="matrix(0.05,0,0,0.05,113.75,0)" xlink:href="#bL"/><use transform="matrix(0.05,0,0,0.05,120.75,0)" xlink:href="#aY"/><use transform="matrix(0.05,0,0,0.05,133.70000000000002,0)" xlink:href="#aP"/><use transform="matrix(0.05,0,0,0.05,143.70000000000002,0)" xlink:href="#aZ"/><use transform="matrix(0.05,0,0,0.05,149.65,0)" xlink:href="#aP"/><use transform="matrix(0.05,0,0,0.05,159.65,0)" xlink:href="#ca"/><use transform="matrix(0.05,0,0,0.05,169.65,0)" xlink:href="#ch"/><use transform="matrix(0.05,0,0,0.05,182.6,0)" xlink:href="#ci"/><use transform="matrix(0.05,0,0,0.05,193.54999999999998,0)" xlink:href="#ci"/><use transform="matrix(0.05,0,0,0.05,204.49999999999997,0)" xlink:href="#cj"/><use transform="matrix(0.05,0,0,0.05,216.49999999999997,0)" xlink:href="#cc"/></g></defs></g></svg>